<svg xmlns="http://www.w3.org/2000/svg" xmlns:xlink="http://www.w3.org/1999/xlink" xmlns:lucid="lucid" width="999.15" height="423"><g transform="translate(-278.5 -318.5)" lucid:page-tab-id="0_0"><path d="M0 0h1500v1000H0z" fill="#fff"/><path d="M300 346a6 6 0 0 1 6-6h628a6 6 0 0 1 6 6v368a6 6 0 0 1-6 6H306a6 6 0 0 1-6-6z" fill-opacity="0"/><path d="M324.1 340h12.1m12.07 0h12.08m12.07 0h12.08m12.08 0h12.07m12.08 0h12.08m12.08 0h12.08m12.08 0h12.07m12.1 0h12.07m12.08 0h12.07m12.08 0h12.08m12.07 0h12.08m12.08 0h12.1m12.06 0h12.08m12.08 0h12.07m12.07 0h12.08m12.07 0h12.08m12.08 0h12.07m12.08 0h12.08m12.1 0h12.06m12.08 0h12.08m12.07 0h12.07m12.08 0h12.07m12.08 0h12.08m12.07 0h12.08m12.08 0h12.1m12.06 0H934l.94.07.9.22.88.35.8.5.72.6.6.72.5.8.37.88.23.9.07.95v6.13m0 12.27v12.27m0 12.26v12.27m0 12.27v12.26m0 12.27v12.27m0 12.26v12.27m0 12.27v12.26m0 12.27v12.27m0 12.26v12.27m0 12.27v12.26m0 12.27v12.27m0 12.26V622m0 12.27v12.26m0 12.27v12.27m0 12.26v12.27m0 12.27V714l-.07.94-.22.9-.35.88-.5.8-.6.72-.72.6-.8.5-.88.37-.9.23-.95.07h-6.04m-12.08 0H903.8m-12.07 0h-12.08m-12.07 0H855.5m-12.08 0h-12.07m-12.08 0H807.2m-12.1 0h-12.06m-12.08 0h-12.08m-12.07 0h-12.07m-12.08 0h-12.07m-12.08 0h-12.08m-12.07 0h-12.08m-12.08 0h-12.1m-12.06 0h-12.08m-12.08 0H589.8m-12.07 0h-12.08m-12.07 0H541.5m-12.08 0h-12.07m-12.08 0H493.2m-12.08 0h-12.08m-12.08 0H444.9m-12.1 0h-12.07m-12.08 0h-12.07m-12.08 0h-12.08m-12.07 0h-12.08m-12.08 0H324.1m-12.08 0H306l-.94-.07-.9-.22-.88-.35-.8-.5-.72-.6-.6-.72-.5-.8-.37-.88-.23-.9-.07-.95v-6.13m0-12.27v-12.27m0-12.26V658.8m0-12.27v-12.26m0-12.27v-12.27m0-12.26V585.2m0-12.27v-12.26m0-12.27v-12.27m0-12.26V511.6m0-12.27v-12.26m0-12.27v-12.27m0-12.26V438m0-12.27v-12.26m0-12.27v-12.27m0-12.26V364.4m0-12.27V346l.07-.94.22-.9.35-.88.5-.8.6-.72.72-.6.8-.5.88-.37.9-.23.95-.07h6.04" stroke="#3a414a" stroke-width="3" fill="none"/><path d="M340 406a6 6 0 0 1 6-6h348a6 6 0 0 1 6 6v28a6 6 0 0 1-6 6H346a6 6 0 0 1-6-6z" stroke="#3a414a" stroke-width="2" fill="#fff"/><use xlink:href="#a" transform="matrix(1,0,0,1,352,412) translate(143.05 14.4)"/><path d="M740 406a6 6 0 0 1 6-6h128a6 6 0 0 1 6 6v28a6 6 0 0 1-6 6H746a6 6 0 0 1-6-6z" stroke="#3a414a" stroke-width="2" fill="#fff"/><use xlink:href="#b" transform="matrix(1,0,0,1,752,412) translate(33.05 14.4)"/><path d="M400 366a6 6 0 0 1 6-6h228a6 6 0 0 1 6 6v28a6 6 0 0 1-6 6H406a6 6 0 0 1-6-6z" fill="none"/><use xlink:href="#c" transform="matrix(1,0,0,1,400,360) translate(75 23.6)"/><path d="M760 366a6 6 0 0 1 6-6h128a6 6 0 0 1 6 6v28a6 6 0 0 1-6 6H766a6 6 0 0 1-6-6z" fill="none"/><use xlink:href="#d" transform="matrix(1,0,0,1,760,360) translate(0 23.6)"/><path d="M418.5 585.96h7.9v5.87h-7.9v-5.87zM448.6 520H480v76.67h-31.4V520z" fill="#29aae1"/><path d="M380.5 532.92h83.1v53.13h-83.1V532.9z" fill="#29aae1"/><path d="M384.3 536.15h75.8v47.5h-75.8v-47.5z" fill="#fff" fill-opacity=".98"/><path d="M383.8 592.25h75.7l-3.7 12.66H380l3.8-12.65z" fill="#29aae1"/><path d="M383.3 591.83h77.5l6.5 13.17h-77.5l-6.5-13.17z" fill="#29aae1"/><path d="M409.6 601.6h27.6v2.63h-27.6v-2.63zM394.4 593.87h2.1v1.7h-2.1v-1.7zM398 593.95h2.1v1.7H398v-1.7zM402.7 597h2v1.7h-2V597zM401.9 593.78h2.1v1.7h-2.1v-1.7zM405.4 593.87h2.1v1.7h-2.1v-1.7zM408.9 593.78h2v1.7h-2v-1.7zM430.2 594.03h2.1v1.7h-2.1v-1.7zM433.4 594.03h2v1.7h-2v-1.7zM436.3 594.03h2.1v1.7h-2.1v-1.7zM439.8 594.03h2.1v1.7h-2.1v-1.7zM443.1 594.03h2v1.7h-2v-1.7zM439.2 596.84h2.1v1.7h-2.1v-1.7zM446.8 594.03h2.1v1.7h-2.1v-1.7zM406.5 596.92h2.1v1.7h-2.1v-1.7zM410.5 596.92h2v1.7h-2v-1.7zM436 596.75h1.8v1.7H436v-1.7zM432.5 596.75h2v1.7h-2v-1.7zM412.7 593.87h2v1.7h-2v-1.7zM416.5 593.95h2.1v1.7h-2.1v-1.7zM420.1 593.87h2.1v1.7h-2.1v-1.7zM424.1 593.87h2v1.7h-2v-1.7zM427.3 593.95h2.1v1.7h-2.1v-1.7zM414 596.84h2v1.7h-2v-1.7zM417.8 596.84h2.1v1.7h-2.1v-1.7zM421.5 596.92h2v1.7h-2v-1.7zM425 596.92h2.1v1.7H425v-1.7zM428.7 596.75h2v1.7h-2v-1.7z" fill="#fff"/><path d="M380.1 604.9l87.2-.24-6.2-12.83-77.2.08-3.8 13z" fill="none"/><path d="M470.8 524h5.6c.6 0 .6 0 .6.6 0 .58 0 .58-.6.58h-5.6c-.6 0-.6 0-.6-.6s0-.6.6-.6zM470.8 526.8h5.7c.5 0 .5 0 .5.5 0 .52 0 .52-.5.52h-5.7c-.6 0-.6 0-.6-.5 0-.52 0-.52.6-.52zM448.7 532.07h15.1v.68h-15.1v-.68zM463.8 532.07h.7v54.14h-.7V532.1z" fill="#fff"/><path d="M448.6 586.13h15.8v.76h-15.8v-.77zM448.7 590.47h12.1c.6 0 .6 0 .6.6 0 .67 0 .67-.6.67h-12.1c-.6 0-.6 0-.6-.68 0-.6 0-.6.6-.6z" fill="#fff"/><path d="M461.3 590.63l3.4 5.87-1 .6-3.3-5.96.9-.5zM418.1 585.96h8.5v.85h-8.5v-.84zM418.4 590.9h8.1v.93h-8.1v-.94z" fill="#fff"/><path d="M438.5 605.96h7.9v5.87h-7.9v-5.87zM468.6 540H500v76.67h-31.4V540z" fill="#29aae1"/><path d="M400.5 552.92h83.1v53.13h-83.1V552.9z" fill="#29aae1"/><path d="M404.3 556.15h75.8v47.5h-75.8v-47.5z" fill="#fff" fill-opacity=".98"/><path d="M403.8 612.25h75.7l-3.7 12.66H400l3.8-12.65z" fill="#29aae1"/><path d="M403.3 611.83h77.5l6.5 13.17h-77.5l-6.5-13.17z" fill="#29aae1"/><path d="M429.6 621.6h27.6v2.63h-27.6v-2.63zM414.4 613.87h2.1v1.7h-2.1v-1.7zM418 613.95h2.1v1.7H418v-1.7zM422.7 617h2v1.7h-2V617zM421.9 613.78h2.1v1.7h-2.1v-1.7zM425.4 613.87h2.1v1.7h-2.1v-1.7zM428.9 613.78h2v1.7h-2v-1.7zM450.2 614.03h2.1v1.7h-2.1v-1.7zM453.4 614.03h2v1.7h-2v-1.7zM456.3 614.03h2.1v1.7h-2.1v-1.7zM459.8 614.03h2.1v1.7h-2.1v-1.7zM463.1 614.03h2v1.7h-2v-1.7zM459.2 616.84h2.1v1.7h-2.1v-1.7zM466.8 614.03h2.1v1.7h-2.1v-1.7zM426.5 616.92h2.1v1.7h-2.1v-1.7zM430.5 616.92h2v1.7h-2v-1.7zM456 616.75h1.8v1.7H456v-1.7zM452.5 616.75h2v1.7h-2v-1.7zM432.7 613.87h2v1.7h-2v-1.7zM436.5 613.95h2.1v1.7h-2.1v-1.7zM440.1 613.87h2.1v1.7h-2.1v-1.7zM444.1 613.87h2v1.7h-2v-1.7zM447.3 613.95h2.1v1.7h-2.1v-1.7zM434 616.84h2v1.7h-2v-1.7zM437.8 616.84h2.1v1.7h-2.1v-1.7zM441.5 616.92h2v1.7h-2v-1.7zM445 616.92h2.1v1.7H445v-1.7zM448.7 616.75h2v1.7h-2v-1.7z" fill="#fff"/><path d="M400.1 624.9l87.2-.24-6.2-12.83-77.2.08-3.8 13z" fill="none"/><path d="M490.8 544h5.6c.6 0 .6 0 .6.6 0 .58 0 .58-.6.58h-5.6c-.6 0-.6 0-.6-.6s0-.6.6-.6zM490.8 546.8h5.7c.5 0 .5 0 .5.5 0 .52 0 .52-.5.52h-5.7c-.6 0-.6 0-.6-.5 0-.52 0-.52.6-.52zM468.7 552.07h15.1v.68h-15.1v-.68zM483.8 552.07h.7v54.14h-.7V552.1z" fill="#fff"/><path d="M468.6 606.13h15.8v.76h-15.8v-.77zM468.7 610.47h12.1c.6 0 .6 0 .6.6 0 .67 0 .67-.6.67h-12.1c-.6 0-.6 0-.6-.68 0-.6 0-.6.6-.6z" fill="#fff"/><path d="M481.3 610.63l3.4 5.87-1 .6-3.3-5.96.9-.5zM438.1 605.96h8.5v.85h-8.5v-.84zM438.4 610.9h8.1v.93h-8.1v-.94z" fill="#fff"/><use xlink:href="#e" transform="matrix(1,0,0,1,370,625) translate(66.525 18.6)"/><path d="M458.5 625.96h7.9v5.87h-7.9v-5.87zM488.6 560H520v76.67h-31.4V560z" fill="#29aae1"/><path d="M420.5 572.92h83.1v53.13h-83.1V572.9z" fill="#29aae1"/><path d="M424.3 576.15h75.8v47.5h-75.8v-47.5z" fill="#fff" fill-opacity=".98"/><path d="M423.8 632.25h75.7l-3.7 12.66H420l3.8-12.65z" fill="#29aae1"/><path d="M423.3 631.83h77.5l6.5 13.17h-77.5l-6.5-13.17z" fill="#29aae1"/><path d="M449.6 641.6h27.6v2.63h-27.6v-2.63zM434.4 633.87h2.1v1.7h-2.1v-1.7zM438 633.95h2.1v1.7H438v-1.7zM442.7 637h2v1.7h-2V637zM441.9 633.78h2.1v1.7h-2.1v-1.7zM445.4 633.87h2.1v1.7h-2.1v-1.7zM448.9 633.78h2v1.7h-2v-1.7zM470.2 634.03h2.1v1.7h-2.1v-1.7zM473.4 634.03h2v1.7h-2v-1.7zM476.3 634.03h2.1v1.7h-2.1v-1.7zM479.8 634.03h2.1v1.7h-2.1v-1.7zM483.1 634.03h2v1.7h-2v-1.7zM479.2 636.84h2.1v1.7h-2.1v-1.7zM486.8 634.03h2.1v1.7h-2.1v-1.7zM446.5 636.92h2.1v1.7h-2.1v-1.7zM450.5 636.92h2v1.7h-2v-1.7zM476 636.75h1.8v1.7H476v-1.7zM472.5 636.75h2v1.7h-2v-1.7zM452.7 633.87h2v1.7h-2v-1.7zM456.5 633.95h2.1v1.7h-2.1v-1.7zM460.1 633.87h2.1v1.7h-2.1v-1.7zM464.1 633.87h2v1.7h-2v-1.7zM467.3 633.95h2.1v1.7h-2.1v-1.7zM454 636.84h2v1.7h-2v-1.7zM457.8 636.84h2.1v1.7h-2.1v-1.7zM461.5 636.92h2v1.7h-2v-1.7zM465 636.92h2.1v1.7H465v-1.7zM468.7 636.75h2v1.7h-2v-1.7z" fill="#fff"/><path d="M420.1 644.9l87.2-.24-6.2-12.83-77.2.08-3.8 13z" fill="none"/><path d="M510.8 564h5.6c.6 0 .6 0 .6.6 0 .58 0 .58-.6.58h-5.6c-.6 0-.6 0-.6-.6s0-.6.6-.6zM510.8 566.8h5.7c.5 0 .5 0 .5.5 0 .52 0 .52-.5.52h-5.7c-.6 0-.6 0-.6-.5 0-.52 0-.52.6-.52zM488.7 572.07h15.1v.68h-15.1v-.68zM503.8 572.07h.7v54.14h-.7V572.1z" fill="#fff"/><path d="M488.6 626.13h15.8v.76h-15.8v-.77zM488.7 630.47h12.1c.6 0 .6 0 .6.6 0 .67 0 .67-.6.67h-12.1c-.6 0-.6 0-.6-.68 0-.6 0-.6.6-.6z" fill="#fff"/><path d="M501.3 630.63l3.4 5.87-1 .6-3.3-5.96.9-.5zM458.1 625.96h8.5v.85h-8.5v-.84zM458.4 630.9h8.1v.93h-8.1v-.94z" fill="#fff"/><path d="M489.82 600c-.6.06-1.08.18-1.56.42l-20.82 10.26c-1.14.54-1.92 1.5-2.16 2.76l-5.16 23.1c-.24 1.08-.06 2.16.54 3.12.06.12.12.18.24.3l14.4 18.48c.78 1.02 1.86 1.56 3.12 1.56h23.16c1.26 0 2.34-.54 3.12-1.56l14.4-18.48c.78-1.02 1.08-2.22.78-3.48l-5.16-23.04c-.24-1.26-1.02-2.22-2.16-2.76l-20.82-10.26c-.66-.3-1.26-.48-1.92-.42z" fill="#326ce5"/><path d="M472.64 608.1l-5.2 2.58-1.42 1.1-.74 1.66-1.3 5.77m-2.57 11.56l-1.28 5.78-.05 1.6.6 1.52.1.15.13.16 3.6 4.62m7.2 9.24l3.6 4.62 1.38 1.16 1.74.4h5.8m11.57 0h5.78l1.74-.4 1.38-1.16 3.6-4.62m7.2-9.24l3.6-4.62.8-1.65-.02-1.82-1.3-5.76m-2.57-11.52l-1.28-5.76-.74-1.65-1.42-1.12-5.2-2.56M496.94 603l-5.2-2.58-.96-.34-.96-.08-.82.14-.74.28-5.2 2.57" stroke="#fff" stroke-width="0" fill="none"/><path d="M490 607.86c-.7 0-1.23.62-1.23 1.4v.41c0 .45.1.8.13 1.2.13.88.22 1.64.18 2.35-.1.26-.27.48-.44.66v.53c-.75.1-1.5.2-2.3.37-3.2.75-6 2.48-8.13 4.82-.12-.1-.38-.27-.43-.36-.2.04-.43.13-.74-.04-.57-.4-1.06-.94-1.67-1.6-.3-.3-.5-.58-.84-.88-.1-.1-.17-.18-.26-.23-.27-.23-.57-.36-.88-.36-.4 0-.75.13-1 .44-.45.58-.28 1.42.3 1.9l.04.05c.04.05.17.13.22.18.4.27.7.45 1.05.63.74.5 1.36.88 1.84 1.37.22.22.22.58.26.75l.4.36c-2.15 3.33-3.12 7.45-2.55 11.6l-.53.2c-.13.16-.3.43-.53.52-.66.22-1.37.3-2.25.4-.4.04-.75 0-1.2.1-.07 0-.2.03-.34.08-.74.17-1.22.88-1.04 1.54.13.7.83 1.1 1.58.98 0 0 .04 0 .04-.05.14 0 .27-.04.36-.04.4-.13.7-.3 1.1-.44.83-.32 1.5-.6 2.2-.68.26-.04.57.18.7.27l.52-.14c1.28 4.03 3.88 7.26 7.22 9.3l-.22.53c.08.2.17.52.08.74-.2.62-.65 1.33-1.1 2.08-.26.36-.48.62-.7 1.02l-.13.35c-.34.7-.08 1.5.54 1.8.6.32 1.36 0 1.7-.7.06-.1.14-.22.2-.35.17-.4.2-.76.34-1.15.3-.85.48-1.78.97-2.3.13-.18.3-.23.53-.27l.26-.53c2.9 1.15 6.16 1.4 9.4.66.7-.18 1.46-.4 2.12-.66.1.17.26.44.26.48.22.1.5.14.66.4.36.62.58 1.33.84 2.17.13.4.22.8.4 1.2.04.1.08.22.13.3.35.72 1.1 1.07 1.7.76.63-.3.9-1.1.54-1.8l-.14-.36c-.22-.4-.44-.66-.66-1.02-.5-.8-.88-1.42-1.14-2.08-.1-.3.04-.53.13-.75-.1-.06-.2-.37-.23-.5 3.43-2.13 5.98-5.5 7.17-9.34.17 0 .44.1.57.1.18-.15.36-.33.67-.28.7.1 1.36.35 2.2.66.4.14.7.3 1.1.45.08.03.2.03.35.07h.04c.75.18 1.45-.26 1.58-.92.18-.7-.3-1.42-1.05-1.6-.1 0-.28-.04-.36-.1-.44-.08-.8-.03-1.2-.08-.87-.1-1.57-.17-2.23-.4-.26-.08-.43-.4-.52-.53l-.53-.17c.26-1.95.22-3.95-.26-5.98-.45-2.05-1.25-3.95-2.34-5.6.13-.13.4-.35.44-.4.04-.26 0-.48.26-.74.48-.45 1.1-.84 1.85-1.33.36-.22.67-.36 1.02-.62.1-.08.22-.17.3-.2.58-.5.7-1.4.3-1.92-.43-.57-1.26-.62-1.88-.13-.1.1-.17.18-.26.22-.35.3-.53.62-.84.93-.6.62-1.1 1.15-1.67 1.55-.26.13-.6.1-.75.1l-.48.34c-2.73-2.93-6.38-4.8-10.38-5.2v-.56c-.17-.14-.4-.27-.44-.62-.04-.7.05-1.47.18-2.35.04-.4.13-.75.13-1.2v-.4c0-.8-.53-1.4-1.23-1.4zm-1.58 9.96l-.36 6.78h-.04c0 .62-.48 1.1-1.1 1.1-.22 0-.44-.08-.6-.22h-.06l-5.36-3.94c1.67-1.68 3.78-2.88 6.2-3.45.44-.14.88-.2 1.32-.28zm3.16 0c2.82.36 5.46 1.68 7.48 3.72l-5.37 3.9c-.5.35-1.15.26-1.5-.22-.18-.18-.26-.4-.26-.62zm-12.62 6.25l4.93 4.5-.06.06c.44.4.53 1.06.18 1.55-.18.22-.35.3-.57.4h-.05l-6.24 1.9c-.35-3 .35-5.98 1.8-8.4zm22.03 0c.74 1.24 1.27 2.56 1.62 4.07.3 1.46.4 2.88.26 4.3l-6.33-1.86v-.05c-.57-.13-.92-.75-.8-1.33.1-.26.2-.44.36-.62l4.9-4.5zm-12 4.87h2l1.24 1.6-.44 2.03-1.8.88-1.8-.88-.44-2.04zm6.45 5.5c.05 0 .13 0 .22.03h.05l6.46 1.1c-.92 2.76-2.77 5.15-5.2 6.74l-2.5-6.28c-.2-.53 0-1.2.53-1.46.14-.1.28-.1.45-.13zm-10.95.03c.53 0 .97.36 1.06.9.1.2.04.48-.05.7l-2.45 6.24c-2.37-1.54-4.22-3.84-5.2-6.67l6.43-1.16h.22zm5.46 2.75c.17-.05.35 0 .52.1.22.12.4.25.5.47h.03l3.18 5.93c-.44.13-.84.26-1.28.35-2.42.58-4.83.4-7.03-.4l3.16-5.88c.18-.36.53-.58.93-.58z" fill="#fff"/><path d="M473.82 630.4l.13 3-.53.2-.23.3-.3.22-1.04.25-1.2.15-.6.02-.6.07-.15.03-.2.07-.86.6-.18.95.56.8 1.02.17h.02l.02-.05.2-.02.16-.02.55-.22.53-.2 1.15-.43 1.05-.25.4.1.3.17.54-.14 1 2.48.16.28m3.67 4.7l1.02.9 1.36.94-.22.53.1.36-.02.38-.46 1-.63 1.08-.37.5-.34.52-.06.18-.07.17-.1 1.05.64.76.95.04.75-.74.1-.16.08-.2.2-.57.15-.57.42-1.27.55-1.04.23-.2.3-.07.26-.53 1.9.6 1.96.37 2.03.1 2.06-.14 1.45-.27 1.07-.3 1.04-.36.17.3.1.18.34.14.3.26.46 1 .4 1.17.17.6.22.6.06.15.07.16.76.75h.96l.63-.75-.1-1.06-.08-.2-.06-.16-.33-.53-.33-.48-.66-1.1-.48-.98v-.4l.13-.35-.14-.22-.1-.28 2.08-1.53.3-.3m3.62-4.76l.58-1.1.6-1.64.3.04.27.04.3-.2.37-.06 1.05.25 1.14.4.56.24.54.22.16.03.2.04h.04l1.02-.14.56-.78-.18-1-.87-.6-.2-.03-.16-.06-.6-.06-.6-.03-1.2-.15-1.03-.25-.32-.24-.2-.3-.53-.16.16-1.97-.07-2-.34-2-.62-2.15-.87-2-.84-1.44.25-.22.2-.17.05-.37.2-.37.83-.65 1.03-.67.5-.3.52-.32.15-.12.16-.1.5-.93-.2-.97-.88-.46-1 .33-.14.13-.12.1-.44.46-.4.46-.85.86-.83.7-.42.1-.32-.02-.5.35-2.27-1.9m-5.2-2.7l-2.9-.6v-.56l-.27-.23-.18-.38.03-1.1.15-1.25.08-.58.05-.63v-.4l-.35-1-.88-.4-.88.4-.35 1V609.68l.05.62.08.57.16 1.24.02 1.12-.2.36-.24.3v.53l-1.13.16-1.15.2-2.3.73-2.1 1.04-1.93 1.34-1.7 1.6-.1.1-.26-.16-.2-.18-.33.06-.4-.1-.82-.7-.84-.9-.4-.44-.44-.44-.13-.13-.14-.1-.43-.27-.45-.1-.56.12-.45.33-.23 1 .53.9.05.05.1.1.12.08.54.35.5.28 1.04.68.82.7.2.4.06.35.4.36-1.3 2.74m13.22-6.72l-.36 6.78h-.04l-.32.78-.78.33-.32-.06-.3-.16h-.04l-5.36-3.94 1.75-1.47 2-1.14 2.2-.78.25-.06.66-.16zm3.16 0l2.22.5 2.08.87 1.9 1.22 1.28 1.12-5.37 3.9-.8.2-.7-.42-.2-.3-.06-.32zm-12.62 6.25l4.93 4.5-.06.06.4.74-.22.8-.27.26-.3.15h-.05l-6.24 1.9-.08-2.13.26-2.08.56-2 .85-1.84zm22.03 0l.94 1.9.66 2.1.02.07.3 2.02v1.98l-.04.3-6.33-1.86v-.05l-.66-.5-.14-.83.14-.34.2-.28zm-12 4.87h2l1.24 1.6-.44 2.03-1.8.88-1.8-.88-.44-2.04zm6.45 5.5h.1l.12.03h.05l6.46 1.1-1.06 2.35-1.5 2.1-1.86 1.74-.77.55-2.5-6.28-.03-.83.54-.64.22-.08zm-10.95.03l.7.25.36.64.04.35-.1.37-2.45 6.24-1.98-1.57-1.64-1.96-1.24-2.3-.34-.85 6.42-1.15h.13zm5.46 2.75h.26l.26.1.3.2.2.27h.03l3.18 5.93-.64.2-.64.15-2.05.3-2.03-.02-1.97-.36-.98-.32 3.16-5.88.38-.43z" stroke="#fff" stroke-width=".05" fill="none"/><use xlink:href="#f" transform="matrix(1,0,0,1,430,669) translate(46 14.4)"/><path d="M693.07 628.03h8.6v6.38h-8.6v-6.37zM725.83 556.25H760v83.43h-34.17v-83.43z" fill="#29aae1"/><path d="M651.72 570.3h90.43v57.82h-90.43v-57.8z" fill="#29aae1"/><path d="M655.86 573.83h82.48v51.7h-82.48v-51.7z" fill="#fff" fill-opacity=".98"/><path d="M655.3 634.88h82.4l-4.04 13.78h-82.48l4.13-13.78z" fill="#29aae1"/><path d="M654.77 634.4h84.34l7.08 14.35h-84.34l-7.07-14.34z" fill="#29aae1"/><path d="M683.4 645.05h30.02v2.87H683.4v-2.87zM666.85 636.63h2.28v1.85h-2.28v-1.85zM670.76 636.73h2.3v1.85h-2.3v-1.86zM675.88 640.05h2.18v1.86h-2.18v-1.85zM675 636.54h2.3v1.85H675v-1.86zM678.82 636.63h2.28v1.85h-2.28v-1.85zM682.63 636.54h2.17v1.85h-2.17v-1.86zM705.8 636.82h2.3v1.85h-2.3v-1.85zM709.3 636.82h2.17v1.85h-2.18v-1.85zM712.44 636.82h2.3v1.85h-2.3v-1.85zM716.25 636.82h2.3v1.85h-2.3v-1.85zM719.84 636.82h2.18v1.85h-2.18v-1.85zM715.6 639.87h2.28v1.85h-2.28v-1.85zM723.87 636.82h2.3v1.85h-2.3v-1.85zM680 639.96h2.3v1.85h-2.28v-1.84zM684.37 639.96h2.17v1.85h-2.17v-1.84zM712.12 639.78h1.96v1.85h-1.96v-1.85zM708.3 639.78h2.2v1.85h-2.2v-1.85zM686.76 636.63h2.18v1.85h-2.18v-1.85zM690.9 636.73h2.28v1.85h-2.28v-1.86zM694.82 636.63h2.28v1.85h-2.28v-1.85zM699.17 636.63h2.17v1.85h-2.17v-1.85zM702.65 636.73h2.28v1.85h-2.28v-1.86zM688.18 639.87h2.17v1.85h-2.17v-1.85zM692.3 639.87h2.3v1.85h-2.3v-1.85zM696.34 639.96h2.17v1.85h-2.16v-1.84zM700.15 639.96h2.28v1.85h-2.28v-1.84zM704.17 639.78h2.18v1.85h-2.18v-1.85z" fill="#fff"/><path d="M651.3 648.66l94.88-.28-6.75-13.97-84 .1-4.14 14.16z" fill="none"/><path d="M750 560.6h6.08c.65 0 .65 0 .65.64 0 .65 0 .65-.65.65h-6.1c-.64 0-.64 0-.64-.65s0-.65.65-.65zM750 563.65h6.2c.53 0 .53 0 .53.56s0 .56-.54.56H750c-.66 0-.66 0-.66-.55s0-.55.65-.55zM725.94 569.4h16.43v.73h-16.43v-.75zM742.37 569.4h.76v58.9h-.76v-58.9z" fill="#fff"/><path d="M725.83 628.2h17.2v.85h-17.2v-.83zM725.94 632.93h13.17c.66 0 .66 0 .66.65 0 .74 0 .74-.65.74h-13.16c-.66 0-.66 0-.66-.74 0-.65 0-.65.66-.65z" fill="#fff"/><path d="M739.65 633.12l3.7 6.38-1.1.65-3.58-6.48.98-.55zM692.64 628.03h9.25v.93h-9.26v-.93zM692.97 633.4h8.8v1h-8.8v-1z" fill="#fff"/><use xlink:href="#g" transform="matrix(1,0,0,1,621.1764705882352,648.75) translate(55.88271604938271 18.555555555555557)"/><path d="M810 441.5v155a6 6 0 0 1-6 6h-27.62" stroke="#3a414a" fill="none"/><path d="M810.48 441.5h-.96v-.5h.96z" stroke="#3a414a" stroke-width=".05" fill="#3a414a"/><path d="M761.62 602.5l14.26-4.63v9.26z" stroke="#3a414a" fill="#3a414a"/><path d="M651.22 602.5h-31.9a6 6 0 0 1-6-6V457.38" stroke="#3a414a" fill="none"/><path d="M651.72 602.98h-.5V602h.5z" stroke="#3a414a" stroke-width=".05" fill="#3a414a"/><path d="M613.33 442.62l4.64 14.26h-9.27z" stroke="#3a414a" fill="#3a414a"/><path d="M436 441.5v75.04" stroke="#3a414a" fill="none"/><path d="M436.48 441.5h-.96v-.5h.96z" stroke="#3a414a" stroke-width=".05" fill="#3a414a"/><path d="M436 531.3l-4.63-14.26h9.26z" stroke="#3a414a" fill="#3a414a"/><path d="M1185.3 557.6h9.3v6.9h-9.3v-6.9zM1220.7 480h36.95v90.2h-36.94V480z" fill="#29aae1"/><path d="M1140.6 495.2h97.75v62.5h-97.76v-62.5z" fill="#29aae1"/><path d="M1145.06 499h89.17v55.9h-89.17V499z" fill="#fff" fill-opacity=".98"/><path d="M1144.47 565h89.06l-4.35 14.9H1140l4.47-14.9z" fill="#29aae1"/><path d="M1143.88 564.5h91.18l7.65 15.5h-91.17l-7.65-15.5z" fill="#29aae1"/><path d="M1174.82 576h32.47v3.1h-32.48V576zM1156.94 566.9h2.47v2h-2.46v-2zM1161.18 567h2.47v2h-2.47v-2zM1166.7 570.6h2.36v2h-2.35v-2zM1165.77 566.8h2.46v2h-2.46v-2zM1169.88 566.9h2.47v2h-2.47v-2zM1174 566.8h2.35v2H1174v-2zM1199.06 567.1h2.47v2h-2.47v-2zM1202.82 567.1h2.36v2h-2.36v-2zM1206.23 567.1h2.48v2h-2.47v-2zM1210.35 567.1h2.47v2h-2.47v-2zM1214.23 567.1h2.36v2h-2.37v-2zM1209.65 570.4h2.47v2h-2.47v-2zM1218.6 567.1h2.46v2h-2.47v-2zM1171.18 570.5h2.47v2h-2.47v-2zM1175.88 570.5h2.35v2h-2.35v-2zM1205.88 570.3h2.12v2h-2.12v-2zM1201.77 570.3h2.35v2h-2.35v-2zM1178.47 566.9h2.35v2h-2.35v-2zM1182.94 567h2.47v2h-2.46v-2zM1187.18 566.9h2.47v2h-2.47v-2zM1191.88 566.9h2.35v2h-2.35v-2zM1195.65 567h2.47v2h-2.47v-2zM1180 570.4h2.35v2H1180v-2zM1184.47 570.4h2.47v2h-2.47v-2zM1188.82 570.5h2.36v2h-2.36v-2zM1192.94 570.5h2.47v2h-2.46v-2zM1197.3 570.3h2.35v2h-2.36v-2z" fill="#fff"/><path d="M1140.12 579.9l102.6-.3-7.3-15.1-90.83.1-4.48 15.3z" fill="none"/><path d="M1246.82 484.7h6.6c.7 0 .7 0 .7.7s0 .7-.7.7h-6.6c-.7 0-.7 0-.7-.7s0-.7.7-.7zM1246.82 488h6.7c.6 0 .6 0 .6.6s0 .6-.6.6h-6.7c-.7 0-.7 0-.7-.6s0-.6.7-.6zM1220.82 494.2h17.77v.8h-17.78v-.8zM1238.6 494.2h.8v63.7h-.8v-63.7z" fill="#fff"/><path d="M1220.7 557.8h18.6v.9h-18.6v-.9zM1220.82 562.9h14.24c.7 0 .7 0 .7.7 0 .8 0 .8-.7.8h-14.24c-.7 0-.7 0-.7-.8 0-.7 0-.7.7-.7z" fill="#fff"/><path d="M1235.65 563.1l4 6.9-1.18.7-3.88-7 1.05-.6zM1184.82 557.6h10v1h-10v-1zM1185.18 563.4h9.53v1.1h-9.52v-1.1z" fill="#fff"/><use xlink:href="#h" transform="matrix(1,0,0,1,1110,580) translate(73.59876543209876 19.444444444444443)"/><path d="M1140.1 530H996a6 6 0 0 1-6-6v-98a6 6 0 0 0-6-6h-86.62" stroke="#3a414a" fill="none"/><path d="M1140.6 530.48h-.52v-.96h.5z" stroke="#3a414a" stroke-width=".05" fill="#3a414a"/><path d="M882.62 420l14.26-4.63v9.26z" stroke="#3a414a" fill="#3a414a"/><path d="M1000 506a6 6 0 0 1 6-6h128a6 6 0 0 1 6 6v20.5a6 6 0 0 1-6 6h-128a6 6 0 0 1-6-6z" fill="none"/><use xlink:href="#i" transform="matrix(1,0,0,1,1000,500) translate(10 20.1)"/><defs><path d="M108 0H70L1-190h34L89-25l56-165h34" id="j"/><path d="M210-169c-67 3-38 105-44 169h-31v-121c0-29-5-50-35-48C34-165 62-65 56 0H25l-1-190h30c1 10-1 24 2 32 10-44 99-50 107 0 11-21 27-35 58-36 85-2 47 119 55 194h-31v-121c0-29-5-49-35-48" id="k"/><path d="M115-194c53 0 69 39 70 98 0 66-23 100-70 100C84 3 66-7 56-30L54 0H23l1-261h32v101c10-23 28-34 59-34zm-8 174c40 0 45-34 45-75 0-40-5-75-45-74-42 0-51 32-51 76 0 43 10 73 51 73" id="l"/><path d="M114-163C36-179 61-72 57 0H25l-1-190h30c1 12-1 29 2 39 6-27 23-49 58-41v29" id="m"/><path d="M27 0v-27h64v-190l-56 39v-29l58-41h29v221h61V0H27" id="n"/><g id="a"><use transform="matrix(0.05,0,0,0.05,0,0)" xlink:href="#j"/><use transform="matrix(0.05,0,0,0.05,9,0)" xlink:href="#k"/><use transform="matrix(0.05,0,0,0.05,23.950000000000003,0)" xlink:href="#l"/><use transform="matrix(0.05,0,0,0.05,33.95,0)" xlink:href="#m"/><use transform="matrix(0.05,0,0,0.05,39.900000000000006,0)" xlink:href="#n"/></g><path d="M101-251c68 0 85 55 85 127S166 4 100 4C33 4 14-52 14-124c0-73 17-127 87-127zm-1 229c47 0 54-49 54-102s-4-102-53-102c-51 0-55 48-55 102 0 53 5 102 54 102" id="o"/><g id="b"><use transform="matrix(0.05,0,0,0.05,0,0)" xlink:href="#j"/><use transform="matrix(0.05,0,0,0.05,9,0)" xlink:href="#k"/><use transform="matrix(0.05,0,0,0.05,23.950000000000003,0)" xlink:href="#l"/><use transform="matrix(0.05,0,0,0.05,33.95,0)" xlink:href="#m"/><use transform="matrix(0.05,0,0,0.05,39.900000000000006,0)" xlink:href="#o"/></g><path d="M33 0v-38h34V0H33" id="p"/><path d="M0 4l72-265h28L28 4H0" id="q"/><path d="M101-251c82-7 93 87 43 132L82-64C71-53 59-42 53-27h129V0H18c2-99 128-94 128-182 0-28-16-43-45-43s-46 15-49 41l-32-3c6-41 34-60 81-64" id="r"/><path d="M155-56V0h-30v-56H8v-25l114-167h33v167h35v25h-35zm-30-156c-27 46-58 90-88 131h88v-131" id="s"/><g id="c"><use transform="matrix(0.05,0,0,0.05,0,0)" xlink:href="#n"/><use transform="matrix(0.05,0,0,0.05,10,0)" xlink:href="#o"/><use transform="matrix(0.05,0,0,0.05,20,0)" xlink:href="#p"/><use transform="matrix(0.05,0,0,0.05,25,0)" xlink:href="#o"/><use transform="matrix(0.05,0,0,0.05,35,0)" xlink:href="#p"/><use transform="matrix(0.05,0,0,0.05,40,0)" xlink:href="#n"/><use transform="matrix(0.05,0,0,0.05,50,0)" xlink:href="#p"/><use transform="matrix(0.05,0,0,0.05,55,0)" xlink:href="#n"/><use transform="matrix(0.05,0,0,0.05,65,0)" xlink:href="#q"/><use transform="matrix(0.05,0,0,0.05,70,0)" xlink:href="#r"/><use transform="matrix(0.05,0,0,0.05,80,0)" xlink:href="#s"/></g><path d="M99-251c64 0 84 50 84 122C183-37 130 33 47-8c-14-7-20-23-25-40l30-5c6 39 69 39 84 7 9-19 16-44 16-74-10 22-31 35-62 35-49 0-73-33-73-83 0-54 28-83 82-83zm-1 141c31-1 51-18 51-49 0-36-14-67-51-67-34 0-49 23-49 58 0 34 15 58 49 58" id="t"/><path d="M110-160c48 1 74 30 74 79 0 53-28 85-80 85-65 0-83-55-86-122-5-90 50-162 133-122 14 7 22 21 27 39l-31 6c-5-40-67-38-82-6-9 19-15 44-15 74 11-20 30-34 60-33zm-7 138c34 0 49-23 49-58s-16-56-50-56c-29 0-50 16-49 49 1 36 15 65 50 65" id="u"/><path d="M134-131c28 9 52 24 51 62-1 50-34 73-85 73S17-19 16-69c0-36 21-54 49-61-75-25-45-126 34-121 46 3 78 18 79 63 0 33-17 51-44 57zm-34-11c31 1 46-15 46-44 0-28-17-43-47-42-29 0-46 13-45 42 1 28 16 44 46 44zm1 122c35 0 51-18 51-52 0-30-18-46-53-46-33 0-51 17-51 47 0 34 19 51 53 51" id="v"/><path d="M126-127c33 6 58 20 58 59 0 88-139 92-164 29-3-8-5-16-6-25l32-3c6 27 21 44 54 44 32 0 52-15 52-46 0-38-36-46-79-43v-28c39 1 72-4 72-42 0-27-17-43-46-43-28 0-47 15-49 41l-32-3c6-42 35-63 81-64 48-1 79 21 79 65 0 36-21 52-52 59" id="w"/><g id="d"><use transform="matrix(0.05,0,0,0.05,0,0)" xlink:href="#n"/><use transform="matrix(0.05,0,0,0.05,10,0)" xlink:href="#t"/><use transform="matrix(0.05,0,0,0.05,20,0)" xlink:href="#r"/><use transform="matrix(0.05,0,0,0.05,30,0)" xlink:href="#p"/><use transform="matrix(0.05,0,0,0.05,35,0)" xlink:href="#n"/><use transform="matrix(0.05,0,0,0.05,45,0)" xlink:href="#u"/><use transform="matrix(0.05,0,0,0.05,55,0)" xlink:href="#v"/><use transform="matrix(0.05,0,0,0.05,65,0)" xlink:href="#p"/><use transform="matrix(0.05,0,0,0.05,70,0)" xlink:href="#n"/><use transform="matrix(0.05,0,0,0.05,80,0)" xlink:href="#p"/><use transform="matrix(0.05,0,0,0.05,85,0)" xlink:href="#n"/><use transform="matrix(0.05,0,0,0.05,95,0)" xlink:href="#w"/><use transform="matrix(0.05,0,0,0.05,105,0)" xlink:href="#n"/><use transform="matrix(0.05,0,0,0.05,115,0)" xlink:href="#q"/><use transform="matrix(0.05,0,0,0.05,120,0)" xlink:href="#r"/><use transform="matrix(0.05,0,0,0.05,130,0)" xlink:href="#s"/></g><path d="M137 0h-34L2-248h35l83 218 83-218h36" id="x"/><path d="M240 0l2-218c-23 76-54 145-80 218h-23L58-218 59 0H30v-248h44l77 211c21-75 51-140 76-211h43V0h-30" id="y"/><g id="e"><use transform="matrix(0.05,0,0,0.05,0,0)" xlink:href="#x"/><use transform="matrix(0.05,0,0,0.05,12,0)" xlink:href="#y"/></g><path d="M143 0L79-87 56-68V0H24v-261h32v163l83-92h37l-77 82L181 0h-38" id="z"/><path d="M135-143c-3-34-86-38-87 0 15 53 115 12 119 90S17 21 10-45l28-5c4 36 97 45 98 0-10-56-113-15-118-90-4-57 82-63 122-42 12 7 21 19 24 35" id="A"/><g id="f"><use transform="matrix(0.05,0,0,0.05,0,0)" xlink:href="#z"/><use transform="matrix(0.05,0,0,0.05,9,0)" xlink:href="#v"/><use transform="matrix(0.05,0,0,0.05,19,0)" xlink:href="#A"/></g><path d="M141-36C126-15 110 5 73 4 37 3 15-17 15-53c-1-64 63-63 125-63 3-35-9-54-41-54-24 1-41 7-42 31l-33-3c5-37 33-52 76-52 45 0 72 20 72 64v82c-1 20 7 32 28 27v20c-31 9-61-2-59-35zM48-53c0 20 12 33 32 33 41-3 63-29 60-74-43 2-92-5-92 41" id="B"/><path d="M59-47c-2 24 18 29 38 22v24C64 9 27 4 27-40v-127H5v-23h24l9-43h21v43h35v23H59v120" id="C"/><path d="M24-231v-30h32v30H24zM24 0v-190h32V0H24" id="D"/><path d="M100-194c62-1 85 37 85 99 1 63-27 99-86 99S16-35 15-95c0-66 28-99 85-99zM99-20c44 1 53-31 53-75 0-43-8-75-51-75s-53 32-53 75 10 74 51 75" id="E"/><path d="M117-194c89-4 53 116 60 194h-32v-121c0-31-8-49-39-48C34-167 62-67 57 0H25l-1-190h30c1 10-1 24 2 32 11-22 29-35 61-36" id="F"/><g id="g"><use transform="matrix(0.04938271604938272,0,0,0.04938271604938272,0,0)" xlink:href="#l"/><use transform="matrix(0.04938271604938272,0,0,0.04938271604938272,9.876543209876544,0)" xlink:href="#B"/><use transform="matrix(0.04938271604938272,0,0,0.04938271604938272,19.75308641975309,0)" xlink:href="#A"/><use transform="matrix(0.04938271604938272,0,0,0.04938271604938272,28.641975308641978,0)" xlink:href="#C"/><use transform="matrix(0.04938271604938272,0,0,0.04938271604938272,33.580246913580254,0)" xlink:href="#D"/><use transform="matrix(0.04938271604938272,0,0,0.04938271604938272,37.48148148148149,0)" xlink:href="#E"/><use transform="matrix(0.04938271604938272,0,0,0.04938271604938272,47.35802469135803,0)" xlink:href="#F"/></g><path d="M30-248c87 1 191-15 191 75 0 78-77 80-158 76V0H30v-248zm33 125c57 0 124 11 124-50 0-59-68-47-124-48v98" id="G"/><path d="M212-179c-10-28-35-45-73-45-59 0-87 40-87 99 0 60 29 101 89 101 43 0 62-24 78-52l27 14C228-24 195 4 139 4 59 4 22-46 18-125c-6-104 99-153 187-111 19 9 31 26 39 46" id="H"/><g id="h"><use transform="matrix(0.06172839506172839,0,0,0.06172839506172839,0,0)" xlink:href="#G"/><use transform="matrix(0.06172839506172839,0,0,0.06172839506172839,14.814814814814813,0)" xlink:href="#H"/></g><g id="i"><use transform="matrix(0.05,0,0,0.05,0,0)" xlink:href="#n"/><use transform="matrix(0.05,0,0,0.05,10,0)" xlink:href="#t"/><use transform="matrix(0.05,0,0,0.05,20,0)" xlink:href="#r"/><use transform="matrix(0.05,0,0,0.05,30,0)" xlink:href="#p"/><use transform="matrix(0.05,0,0,0.05,35,0)" xlink:href="#n"/><use transform="matrix(0.05,0,0,0.05,45,0)" xlink:href="#u"/><use transform="matrix(0.05,0,0,0.05,55,0)" xlink:href="#v"/><use transform="matrix(0.05,0,0,0.05,65,0)" xlink:href="#p"/><use transform="matrix(0.05,0,0,0.05,70,0)" xlink:href="#n"/><use transform="matrix(0.05,0,0,0.05,80,0)" xlink:href="#p"/><use transform="matrix(0.05,0,0,0.05,85,0)" xlink:href="#n"/><use transform="matrix(0.05,0,0,0.05,95,0)" xlink:href="#q"/><use transform="matrix(0.05,0,0,0.05,100,0)" xlink:href="#r"/><use transform="matrix(0.05,0,0,0.05,110,0)" xlink:href="#s"/></g></defs></g></svg>