<svg xmlns="http://www.w3.org/2000/svg" xmlns:xlink="http://www.w3.org/1999/xlink" xmlns:lucid="lucid" width="1055.83" height="423"><g transform="translate(-220 -318.5)" lucid:page-tab-id="0_0"><path d="M0 0h1500v1000H0z" fill="#fff"/><path d="M300 346a6 6 0 0 1 6-6h628a6 6 0 0 1 6 6v368a6 6 0 0 1-6 6H306a6 6 0 0 1-6-6z" fill-opacity="0"/><path d="M324.1 340h12.1m12.07 0h12.08m12.07 0h12.08m12.08 0h12.07m12.08 0h12.08m12.08 0h12.08m12.08 0h12.07m12.1 0h12.07m12.08 0h12.07m12.08 0h12.08m12.07 0h12.08m12.08 0h12.1m12.06 0h12.08m12.08 0h12.07m12.07 0h12.08m12.07 0h12.08m12.08 0h12.07m12.08 0h12.08m12.1 0h12.06m12.08 0h12.08m12.07 0h12.07m12.08 0h12.07m12.08 0h12.08m12.07 0h12.08m12.08 0h12.1m12.06 0H934l.94.07.9.22.88.35.8.5.72.6.6.72.5.8.37.88.23.9.07.95v6.13m0 12.27v12.27m0 12.26v12.27m0 12.27v12.26m0 12.27v12.27m0 12.26v12.27m0 12.27v12.26m0 12.27v12.27m0 12.26v12.27m0 12.27v12.26m0 12.27v12.27m0 12.26V622m0 12.27v12.26m0 12.27v12.27m0 12.26v12.27m0 12.27V714l-.07.94-.22.9-.35.88-.5.8-.6.72-.72.6-.8.5-.88.37-.9.23-.95.07h-6.04m-12.08 0H903.8m-12.07 0h-12.08m-12.07 0H855.5m-12.08 0h-12.07m-12.08 0H807.2m-12.1 0h-12.06m-12.08 0h-12.08m-12.07 0h-12.07m-12.08 0h-12.07m-12.08 0h-12.08m-12.07 0h-12.08m-12.08 0h-12.1m-12.06 0h-12.08m-12.08 0H589.8m-12.07 0h-12.08m-12.07 0H541.5m-12.08 0h-12.07m-12.08 0H493.2m-12.08 0h-12.08m-12.08 0H444.9m-12.1 0h-12.07m-12.08 0h-12.07m-12.08 0h-12.08m-12.07 0h-12.08m-12.08 0H324.1m-12.08 0H306l-.94-.07-.9-.22-.88-.35-.8-.5-.72-.6-.6-.72-.5-.8-.37-.88-.23-.9-.07-.95v-6.13m0-12.27v-12.27m0-12.26V658.8m0-12.27v-12.26m0-12.27v-12.27m0-12.26V585.2m0-12.27v-12.26m0-12.27v-12.27m0-12.26V511.6m0-12.27v-12.26m0-12.27v-12.27m0-12.26V438m0-12.27v-12.26m0-12.27v-12.27m0-12.26V364.4m0-12.27V346l.07-.94.22-.9.35-.88.5-.8.6-.72.72-.6.8-.5.88-.37.9-.23.95-.07h6.04" stroke="#3a414a" stroke-width="3" fill="none"/><path d="M340 406a6 6 0 0 1 6-6h348a6 6 0 0 1 6 6v28a6 6 0 0 1-6 6H346a6 6 0 0 1-6-6z" stroke="#3a414a" stroke-width="2" fill="#fff"/><use xlink:href="#a" transform="matrix(1,0,0,1,352,412) translate(143.05 14.4)"/><path d="M740 406a6 6 0 0 1 6-6h128a6 6 0 0 1 6 6v28a6 6 0 0 1-6 6H746a6 6 0 0 1-6-6z" stroke="#3a414a" stroke-width="2" fill="#fff"/><use xlink:href="#b" transform="matrix(1,0,0,1,752,412) translate(33.05 14.4)"/><path d="M400 366a6 6 0 0 1 6-6h228a6 6 0 0 1 6 6v28a6 6 0 0 1-6 6H406a6 6 0 0 1-6-6z" fill="none"/><use xlink:href="#c" transform="matrix(1,0,0,1,400,360) translate(75 23.6)"/><path d="M760 366a6 6 0 0 1 6-6h128a6 6 0 0 1 6 6v28a6 6 0 0 1-6 6H766a6 6 0 0 1-6-6z" fill="none"/><use xlink:href="#d" transform="matrix(1,0,0,1,760,360) translate(0 23.6)"/><path d="M398.5 585.96h7.9v5.87h-7.9v-5.87zM428.6 520H460v76.67h-31.4V520z" fill="#29aae1"/><path d="M360.5 532.92h83.1v53.13h-83.1V532.9z" fill="#29aae1"/><path d="M364.3 536.15h75.8v47.5h-75.8v-47.5z" fill="#fff" fill-opacity=".98"/><path d="M363.8 592.25h75.7l-3.7 12.66H360l3.8-12.65z" fill="#29aae1"/><path d="M363.3 591.83h77.5l6.5 13.17h-77.5l-6.5-13.17z" fill="#29aae1"/><path d="M389.6 601.6h27.6v2.63h-27.6v-2.63zM374.4 593.87h2.1v1.7h-2.1v-1.7zM378 593.95h2.1v1.7H378v-1.7zM382.7 597h2v1.7h-2V597zM381.9 593.78h2.1v1.7h-2.1v-1.7zM385.4 593.87h2.1v1.7h-2.1v-1.7zM388.9 593.78h2v1.7h-2v-1.7zM410.2 594.03h2.1v1.7h-2.1v-1.7zM413.4 594.03h2v1.7h-2v-1.7zM416.3 594.03h2.1v1.7h-2.1v-1.7zM419.8 594.03h2.1v1.7h-2.1v-1.7zM423.1 594.03h2v1.7h-2v-1.7zM419.2 596.84h2.1v1.7h-2.1v-1.7zM426.8 594.03h2.1v1.7h-2.1v-1.7zM386.5 596.92h2.1v1.7h-2.1v-1.7zM390.5 596.92h2v1.7h-2v-1.7zM416 596.75h1.8v1.7H416v-1.7zM412.5 596.75h2v1.7h-2v-1.7zM392.7 593.87h2v1.7h-2v-1.7zM396.5 593.95h2.1v1.7h-2.1v-1.7zM400.1 593.87h2.1v1.7h-2.1v-1.7zM404.1 593.87h2v1.7h-2v-1.7zM407.3 593.95h2.1v1.7h-2.1v-1.7zM394 596.84h2v1.7h-2v-1.7zM397.8 596.84h2.1v1.7h-2.1v-1.7zM401.5 596.92h2v1.7h-2v-1.7zM405 596.92h2.1v1.7H405v-1.7zM408.7 596.75h2v1.7h-2v-1.7z" fill="#fff"/><path d="M360.1 604.9l87.2-.24-6.2-12.83-77.2.08-3.8 13z" fill="none"/><path d="M450.8 524h5.6c.6 0 .6 0 .6.6 0 .58 0 .58-.6.58h-5.6c-.6 0-.6 0-.6-.6s0-.6.6-.6zM450.8 526.8h5.7c.5 0 .5 0 .5.5 0 .52 0 .52-.5.52h-5.7c-.6 0-.6 0-.6-.5 0-.52 0-.52.6-.52zM428.7 532.07h15.1v.68h-15.1v-.68zM443.8 532.07h.7v54.14h-.7V532.1z" fill="#fff"/><path d="M428.6 586.13h15.8v.76h-15.8v-.77zM428.7 590.47h12.1c.6 0 .6 0 .6.6 0 .67 0 .67-.6.67h-12.1c-.6 0-.6 0-.6-.68 0-.6 0-.6.6-.6z" fill="#fff"/><path d="M441.3 590.63l3.4 5.87-1 .6-3.3-5.96.9-.5zM398.1 585.96h8.5v.85h-8.5v-.84zM398.4 590.9h8.1v.93h-8.1v-.94z" fill="#fff"/><path d="M418.5 605.96h7.9v5.87h-7.9v-5.87zM448.6 540H480v76.67h-31.4V540z" fill="#29aae1"/><path d="M380.5 552.92h83.1v53.13h-83.1V552.9z" fill="#29aae1"/><path d="M384.3 556.15h75.8v47.5h-75.8v-47.5z" fill="#fff" fill-opacity=".98"/><path d="M383.8 612.25h75.7l-3.7 12.66H380l3.8-12.65z" fill="#29aae1"/><path d="M383.3 611.83h77.5l6.5 13.17h-77.5l-6.5-13.17z" fill="#29aae1"/><path d="M409.6 621.6h27.6v2.63h-27.6v-2.63zM394.4 613.87h2.1v1.7h-2.1v-1.7zM398 613.95h2.1v1.7H398v-1.7zM402.7 617h2v1.7h-2V617zM401.9 613.78h2.1v1.7h-2.1v-1.7zM405.4 613.87h2.1v1.7h-2.1v-1.7zM408.9 613.78h2v1.7h-2v-1.7zM430.2 614.03h2.1v1.7h-2.1v-1.7zM433.4 614.03h2v1.7h-2v-1.7zM436.3 614.03h2.1v1.7h-2.1v-1.7zM439.8 614.03h2.1v1.7h-2.1v-1.7zM443.1 614.03h2v1.7h-2v-1.7zM439.2 616.84h2.1v1.7h-2.1v-1.7zM446.8 614.03h2.1v1.7h-2.1v-1.7zM406.5 616.92h2.1v1.7h-2.1v-1.7zM410.5 616.92h2v1.7h-2v-1.7zM436 616.75h1.8v1.7H436v-1.7zM432.5 616.75h2v1.7h-2v-1.7zM412.7 613.87h2v1.7h-2v-1.7zM416.5 613.95h2.1v1.7h-2.1v-1.7zM420.1 613.87h2.1v1.7h-2.1v-1.7zM424.1 613.87h2v1.7h-2v-1.7zM427.3 613.95h2.1v1.7h-2.1v-1.7zM414 616.84h2v1.7h-2v-1.7zM417.8 616.84h2.1v1.7h-2.1v-1.7zM421.5 616.92h2v1.7h-2v-1.7zM425 616.92h2.1v1.7H425v-1.7zM428.7 616.75h2v1.7h-2v-1.7z" fill="#fff"/><path d="M380.1 624.9l87.2-.24-6.2-12.83-77.2.08-3.8 13z" fill="none"/><path d="M470.8 544h5.6c.6 0 .6 0 .6.6 0 .58 0 .58-.6.58h-5.6c-.6 0-.6 0-.6-.6s0-.6.6-.6zM470.8 546.8h5.7c.5 0 .5 0 .5.5 0 .52 0 .52-.5.52h-5.7c-.6 0-.6 0-.6-.5 0-.52 0-.52.6-.52zM448.7 552.07h15.1v.68h-15.1v-.68zM463.8 552.07h.7v54.14h-.7V552.1z" fill="#fff"/><path d="M448.6 606.13h15.8v.76h-15.8v-.77zM448.7 610.47h12.1c.6 0 .6 0 .6.6 0 .67 0 .67-.6.67h-12.1c-.6 0-.6 0-.6-.68 0-.6 0-.6.6-.6z" fill="#fff"/><path d="M461.3 610.63l3.4 5.87-1 .6-3.3-5.96.9-.5zM418.1 605.96h8.5v.85h-8.5v-.84zM418.4 610.9h8.1v.93h-8.1v-.94z" fill="#fff"/><use xlink:href="#e" transform="matrix(1,0,0,1,350,625) translate(66.525 18.6)"/><path d="M438.5 625.96h7.9v5.87h-7.9v-5.87zM468.6 560H500v76.67h-31.4V560z" fill="#29aae1"/><path d="M400.5 572.92h83.1v53.13h-83.1V572.9z" fill="#29aae1"/><path d="M404.3 576.15h75.8v47.5h-75.8v-47.5z" fill="#fff" fill-opacity=".98"/><path d="M403.8 632.25h75.7l-3.7 12.66H400l3.8-12.65z" fill="#29aae1"/><path d="M403.3 631.83h77.5l6.5 13.17h-77.5l-6.5-13.17z" fill="#29aae1"/><path d="M429.6 641.6h27.6v2.63h-27.6v-2.63zM414.4 633.87h2.1v1.7h-2.1v-1.7zM418 633.95h2.1v1.7H418v-1.7zM422.7 637h2v1.7h-2V637zM421.9 633.78h2.1v1.7h-2.1v-1.7zM425.4 633.87h2.1v1.7h-2.1v-1.7zM428.9 633.78h2v1.7h-2v-1.7zM450.2 634.03h2.1v1.7h-2.1v-1.7zM453.4 634.03h2v1.7h-2v-1.7zM456.3 634.03h2.1v1.7h-2.1v-1.7zM459.8 634.03h2.1v1.7h-2.1v-1.7zM463.1 634.03h2v1.7h-2v-1.7zM459.2 636.84h2.1v1.7h-2.1v-1.7zM466.8 634.03h2.1v1.7h-2.1v-1.7zM426.5 636.92h2.1v1.7h-2.1v-1.7zM430.5 636.92h2v1.7h-2v-1.7zM456 636.75h1.8v1.7H456v-1.7zM452.5 636.75h2v1.7h-2v-1.7zM432.7 633.87h2v1.7h-2v-1.7zM436.5 633.95h2.1v1.7h-2.1v-1.7zM440.1 633.87h2.1v1.7h-2.1v-1.7zM444.1 633.87h2v1.7h-2v-1.7zM447.3 633.95h2.1v1.7h-2.1v-1.7zM434 636.84h2v1.7h-2v-1.7zM437.8 636.84h2.1v1.7h-2.1v-1.7zM441.5 636.92h2v1.7h-2v-1.7zM445 636.92h2.1v1.7H445v-1.7zM448.7 636.75h2v1.7h-2v-1.7z" fill="#fff"/><path d="M400.1 644.9l87.2-.24-6.2-12.83-77.2.08-3.8 13z" fill="none"/><path d="M490.8 564h5.6c.6 0 .6 0 .6.6 0 .58 0 .58-.6.58h-5.6c-.6 0-.6 0-.6-.6s0-.6.6-.6zM490.8 566.8h5.7c.5 0 .5 0 .5.5 0 .52 0 .52-.5.52h-5.7c-.6 0-.6 0-.6-.5 0-.52 0-.52.6-.52zM468.7 572.07h15.1v.68h-15.1v-.68zM483.8 572.07h.7v54.14h-.7V572.1z" fill="#fff"/><path d="M468.6 626.13h15.8v.76h-15.8v-.77zM468.7 630.47h12.1c.6 0 .6 0 .6.6 0 .67 0 .67-.6.67h-12.1c-.6 0-.6 0-.6-.68 0-.6 0-.6.6-.6z" fill="#fff"/><path d="M481.3 630.63l3.4 5.87-1 .6-3.3-5.96.9-.5zM438.1 625.96h8.5v.85h-8.5v-.84zM438.4 630.9h8.1v.93h-8.1v-.94z" fill="#fff"/><path d="M469.82 600c-.6.06-1.08.18-1.56.42l-20.82 10.26c-1.14.54-1.92 1.5-2.16 2.76l-5.16 23.1c-.24 1.08-.06 2.16.54 3.12.06.12.12.18.24.3l14.4 18.48c.78 1.02 1.86 1.56 3.12 1.56h23.16c1.26 0 2.34-.54 3.12-1.56l14.4-18.48c.78-1.02 1.08-2.22.78-3.48l-5.16-23.04c-.24-1.26-1.02-2.22-2.16-2.76l-20.82-10.26c-.66-.3-1.26-.48-1.92-.42z" fill="#326ce5"/><path d="M452.64 608.1l-5.2 2.58-1.42 1.1-.74 1.66-1.3 5.77m-2.57 11.56l-1.28 5.78-.05 1.6.6 1.52.1.15.13.16 3.6 4.62m7.2 9.24l3.6 4.62 1.38 1.16 1.74.4h5.8m11.57 0h5.78l1.74-.4 1.38-1.16 3.6-4.62m7.2-9.24l3.6-4.62.8-1.65-.02-1.82-1.3-5.76m-2.57-11.52l-1.28-5.76-.74-1.65-1.42-1.12-5.2-2.56M476.94 603l-5.2-2.58-.96-.34-.96-.08-.82.14-.74.28-5.2 2.57" stroke="#fff" stroke-width="0" fill="none"/><path d="M470 607.86c-.7 0-1.23.62-1.23 1.4v.41c0 .45.1.8.13 1.2.13.88.22 1.64.18 2.35-.1.26-.27.48-.44.66v.53c-.75.1-1.5.2-2.3.37-3.2.75-6 2.48-8.13 4.82-.12-.1-.38-.27-.43-.36-.2.04-.43.13-.74-.04-.57-.4-1.06-.94-1.67-1.6-.3-.3-.5-.58-.84-.88-.1-.1-.17-.18-.26-.23-.27-.23-.57-.36-.88-.36-.4 0-.75.13-1 .44-.45.58-.28 1.42.3 1.9l.04.05c.04.05.17.13.22.18.4.27.7.45 1.05.63.74.5 1.36.88 1.84 1.37.22.22.22.58.26.75l.4.36c-2.15 3.33-3.12 7.45-2.55 11.6l-.53.2c-.13.16-.3.43-.53.52-.66.22-1.37.3-2.25.4-.4.04-.75 0-1.2.1-.07 0-.2.03-.34.08-.74.17-1.22.88-1.04 1.54.13.7.83 1.1 1.58.98 0 0 .04 0 .04-.05.14 0 .27-.04.36-.04.4-.13.7-.3 1.1-.44.83-.32 1.5-.6 2.2-.68.26-.04.57.18.7.27l.52-.14c1.28 4.03 3.88 7.26 7.22 9.3l-.22.53c.08.2.17.52.08.74-.2.62-.65 1.33-1.1 2.08-.26.36-.48.62-.7 1.02l-.13.35c-.34.7-.08 1.5.54 1.8.6.32 1.36 0 1.7-.7.06-.1.14-.22.2-.35.17-.4.2-.76.34-1.15.3-.85.48-1.78.97-2.3.13-.18.3-.23.53-.27l.26-.53c2.9 1.15 6.16 1.4 9.4.66.7-.18 1.46-.4 2.12-.66.1.17.26.44.26.48.22.1.5.14.66.4.36.62.58 1.33.84 2.17.13.4.22.8.4 1.2.04.1.08.22.13.3.35.72 1.1 1.07 1.7.76.63-.3.9-1.1.54-1.8l-.14-.36c-.22-.4-.44-.66-.66-1.02-.5-.8-.88-1.42-1.14-2.08-.1-.3.04-.53.13-.75-.1-.06-.2-.37-.23-.5 3.43-2.13 5.98-5.5 7.17-9.34.17 0 .44.1.57.1.18-.15.36-.33.67-.28.7.1 1.36.35 2.2.66.4.14.7.3 1.1.45.08.03.2.03.35.07h.04c.75.18 1.45-.26 1.58-.92.18-.7-.3-1.42-1.05-1.6-.1 0-.28-.04-.36-.1-.44-.08-.8-.03-1.2-.08-.87-.1-1.57-.17-2.23-.4-.26-.08-.43-.4-.52-.53l-.53-.17c.26-1.95.22-3.95-.26-5.98-.45-2.05-1.25-3.95-2.34-5.6.13-.13.4-.35.44-.4.04-.26 0-.48.26-.74.48-.45 1.1-.84 1.85-1.33.36-.22.67-.36 1.02-.62.1-.08.22-.17.3-.2.58-.5.7-1.4.3-1.92-.43-.57-1.26-.62-1.88-.13-.1.1-.17.18-.26.22-.35.3-.53.62-.84.93-.6.62-1.1 1.15-1.67 1.55-.26.13-.6.1-.75.1l-.48.34c-2.73-2.93-6.38-4.8-10.38-5.2v-.56c-.17-.14-.4-.27-.44-.62-.04-.7.05-1.47.18-2.35.04-.4.13-.75.13-1.2v-.4c0-.8-.53-1.4-1.23-1.4zm-1.58 9.96l-.36 6.78h-.04c0 .62-.48 1.1-1.1 1.1-.22 0-.44-.08-.6-.22h-.06l-5.36-3.94c1.67-1.68 3.78-2.88 6.2-3.45.44-.14.88-.2 1.32-.28zm3.16 0c2.82.36 5.46 1.68 7.48 3.72l-5.37 3.9c-.5.35-1.15.26-1.5-.22-.18-.18-.26-.4-.26-.62zm-12.62 6.25l4.93 4.5-.06.06c.44.4.53 1.06.18 1.55-.18.22-.35.3-.57.4h-.05l-6.24 1.9c-.35-3 .35-5.98 1.8-8.4zm22.03 0c.74 1.24 1.27 2.56 1.62 4.07.3 1.46.4 2.88.26 4.3l-6.33-1.86v-.05c-.57-.13-.92-.75-.8-1.33.1-.26.2-.44.36-.62l4.9-4.5zm-12 4.87h2l1.24 1.6-.44 2.03-1.8.88-1.8-.88-.44-2.04zm6.45 5.5c.05 0 .13 0 .22.03h.05l6.46 1.1c-.92 2.76-2.77 5.15-5.2 6.74l-2.5-6.28c-.2-.53 0-1.2.53-1.46.14-.1.28-.1.45-.13zm-10.95.03c.53 0 .97.36 1.06.9.1.2.04.48-.05.7l-2.45 6.24c-2.37-1.54-4.22-3.84-5.2-6.67l6.43-1.16h.22zm5.46 2.75c.17-.05.35 0 .52.1.22.12.4.25.5.47h.03l3.18 5.93c-.44.13-.84.26-1.28.35-2.42.58-4.83.4-7.03-.4l3.16-5.88c.18-.36.53-.58.93-.58z" fill="#fff"/><path d="M453.82 630.4l.13 3-.53.2-.23.3-.3.22-1.04.25-1.2.15-.6.02-.6.07-.15.03-.2.07-.86.6-.18.95.56.8 1.02.17h.02l.02-.05.2-.02.16-.02.55-.22.53-.2 1.15-.43 1.05-.25.4.1.3.17.54-.14 1 2.48.16.28m3.67 4.7l1.02.9 1.36.94-.22.53.1.36-.02.38-.46 1-.63 1.08-.37.5-.34.52-.06.18-.07.17-.1 1.05.64.76.95.04.75-.74.1-.16.08-.2.2-.57.15-.57.42-1.27.55-1.04.23-.2.3-.07.26-.53 1.9.6 1.96.37 2.03.1 2.06-.14 1.45-.27 1.07-.3 1.04-.36.17.3.1.18.34.14.3.26.46 1 .4 1.17.17.6.22.6.06.15.07.16.76.75h.96l.63-.75-.1-1.06-.08-.2-.06-.16-.33-.53-.33-.48-.66-1.1-.48-.98v-.4l.13-.35-.14-.22-.1-.28 2.08-1.53.3-.3m3.62-4.76l.58-1.1.6-1.64.3.04.27.04.3-.2.37-.06 1.05.25 1.14.4.56.24.54.22.16.03.2.04h.04l1.02-.14.56-.78-.18-1-.87-.6-.2-.03-.16-.06-.6-.06-.6-.03-1.2-.15-1.03-.25-.32-.24-.2-.3-.53-.16.16-1.97-.07-2-.34-2-.62-2.15-.87-2-.84-1.44.25-.22.2-.17.05-.37.2-.37.83-.65 1.03-.67.5-.3.52-.32.15-.12.16-.1.5-.93-.2-.97-.88-.46-1 .33-.14.13-.12.1-.44.46-.4.46-.85.86-.83.7-.42.1-.32-.02-.5.35-2.27-1.9m-5.2-2.7l-2.9-.6v-.56l-.27-.23-.18-.38.03-1.1.15-1.25.08-.58.05-.63v-.4l-.35-1-.88-.4-.88.4-.35 1V609.68l.05.62.08.57.16 1.24.02 1.12-.2.36-.24.3v.53l-1.13.16-1.15.2-2.3.73-2.1 1.04-1.93 1.34-1.7 1.6-.1.1-.26-.16-.2-.18-.33.06-.4-.1-.82-.7-.84-.9-.4-.44-.44-.44-.13-.13-.14-.1-.43-.27-.45-.1-.56.12-.45.33-.23 1 .53.9.05.05.1.1.12.08.54.35.5.28 1.04.68.82.7.2.4.06.35.4.36-1.3 2.74m13.22-6.72l-.36 6.78h-.04l-.32.78-.78.33-.32-.06-.3-.16h-.04l-5.36-3.94 1.75-1.47 2-1.14 2.2-.78.25-.06.66-.16zm3.16 0l2.22.5 2.08.87 1.9 1.22 1.28 1.12-5.37 3.9-.8.2-.7-.42-.2-.3-.06-.32zm-12.62 6.25l4.93 4.5-.06.06.4.74-.22.8-.27.26-.3.15h-.05l-6.24 1.9-.08-2.13.26-2.08.56-2 .85-1.84zm22.03 0l.94 1.9.66 2.1.02.07.3 2.02v1.98l-.04.3-6.33-1.86v-.05l-.66-.5-.14-.83.14-.34.2-.28zm-12 4.87h2l1.24 1.6-.44 2.03-1.8.88-1.8-.88-.44-2.04zm6.45 5.5h.1l.12.03h.05l6.46 1.1-1.06 2.35-1.5 2.1-1.86 1.74-.77.55-2.5-6.28-.03-.83.54-.64.22-.08zm-10.95.03l.7.25.36.64.04.35-.1.37-2.45 6.24-1.98-1.57-1.64-1.96-1.24-2.3-.34-.85 6.42-1.15h.13zm5.46 2.75h.26l.26.1.3.2.2.27h.03l3.18 5.93-.64.2-.64.15-2.05.3-2.03-.02-1.97-.36-.98-.32 3.16-5.88.38-.43z" stroke="#fff" stroke-width=".05" fill="none"/><use xlink:href="#f" transform="matrix(1,0,0,1,410,669) translate(46 14.4)"/><path d="M801.9 628.03h8.6v6.38h-8.6v-6.37zM834.65 556.25h34.17v83.43h-34.17v-83.43z" fill="#29aae1"/><path d="M760.54 570.3h90.44v57.82h-90.44v-57.8z" fill="#29aae1"/><path d="M764.68 573.83h82.5v51.7h-82.5v-51.7z" fill="#fff" fill-opacity=".98"/><path d="M764.13 634.88h82.38l-4 13.78H760l4.13-13.78z" fill="#29aae1"/><path d="M763.6 634.4h84.33l7.07 14.35h-84.34l-7.07-14.34z" fill="#29aae1"/><path d="M792.2 645.05h30.05v2.87H792.2v-2.87zM775.67 636.63h2.3v1.85h-2.3v-1.85zM779.6 636.73h2.27v1.85h-2.28v-1.86zM784.7 640.05h2.18v1.86h-2.18v-1.85zM783.83 636.54h2.3v1.85h-2.3v-1.86zM787.64 636.63h2.3v1.85h-2.3v-1.85zM791.45 636.54h2.18v1.85h-2.18v-1.86zM814.63 636.82h2.28v1.85h-2.27v-1.85zM818.1 636.82h2.2v1.85h-2.2v-1.85zM821.27 636.82h2.28v1.85h-2.28v-1.85zM825.08 636.82h2.28v1.85h-2.28v-1.85zM828.67 636.82h2.17v1.85h-2.17v-1.85zM824.42 639.87h2.3v1.85h-2.3v-1.85zM832.7 636.82h2.28v1.85h-2.3v-1.85zM788.84 639.96h2.28v1.85h-2.28v-1.84zM793.2 639.96h2.17v1.85h-2.18v-1.84zM820.94 639.78h1.96v1.85h-1.96v-1.85zM817.13 639.78h2.18v1.85h-2.17v-1.85zM795.6 636.63h2.16v1.85h-2.17v-1.85zM799.72 636.73h2.3v1.85h-2.3v-1.86zM803.64 636.63h2.28v1.85h-2.28v-1.85zM808 636.63h2.17v1.85H808v-1.85zM811.47 636.73h2.3v1.85h-2.3v-1.86zM797 639.87h2.18v1.85H797v-1.85zM801.13 639.87h2.3v1.85h-2.3v-1.85zM805.16 639.96h2.18v1.85h-2.18v-1.84zM808.97 639.96h2.3v1.85h-2.3v-1.84zM813 639.78h2.17v1.85H813v-1.85z" fill="#fff"/><path d="M760.1 648.66l94.9-.28-6.74-13.97-84.02.1-4.13 14.16z" fill="none"/><path d="M858.8 560.6h6.1c.66 0 .66 0 .66.64 0 .65 0 .65-.65.65h-6.1c-.64 0-.64 0-.64-.65s0-.65.65-.65zM858.8 563.65h6.22c.54 0 .54 0 .54.56s0 .56-.54.56h-6.2c-.66 0-.66 0-.66-.55s0-.55.65-.55zM834.76 569.4h16.43v.73h-16.44v-.75zM851.2 569.4h.76v58.9h-.77v-58.9z" fill="#fff"/><path d="M834.65 628.2h17.2v.85h-17.2v-.83zM834.76 632.93h13.17c.65 0 .65 0 .65.65 0 .74 0 .74-.65.74h-13.17c-.65 0-.65 0-.65-.74 0-.65 0-.65.66-.65z" fill="#fff"/><path d="M848.47 633.12l3.7 6.38-1.08.65-3.6-6.48.97-.55zM801.46 628.03h9.25v.93h-9.24v-.93zM801.8 633.4h8.8v1h-8.8v-1z" fill="#fff"/><use xlink:href="#g" transform="matrix(1,0,0,1,730,648.75) translate(55.88271604938271 18.555555555555557)"/><path d="M810.48 569.8h-.96v-64.73h.96zm0-86.07h-.96V441.5h.96z" stroke="#3a414a" stroke-width=".05" fill="#3a414a"/><path d="M810.48 441.5h-.96v-.5h.96z" fill="#3a414a"/><path stroke="#3a414a" stroke-width=".05" fill="#3a414a"/><path d="M810.48 570.3h-.96v-.5h.96z" fill="#3a414a"/><path stroke="#3a414a" stroke-width=".05" fill="#3a414a"/><use xlink:href="#h" transform="matrix(1,0,0,1,791.7777777777778,483.7324867698548) translate(0 14.222222222222223)"/><path d="M682.17 596.48l.07.88.2.85.34.8.45.75.56.66.65.57.74.45.8.33.84.2.88.07h4.95v.96h-5l-.98-.08-1-.24-.94-.4-.87-.52-.78-.66-.66-.77-.53-.86-.4-.94-.23-1-.08-.98V441.5h.95zm77.87 5.54v.96H729.1V602z" stroke="#3a414a" stroke-width=".05" fill="#3a414a"/><path d="M760.54 602.98h-.5V602h.5z" fill="#3a414a"/><path stroke="#3a414a" stroke-width=".05" fill="#3a414a"/><path d="M682.17 441.5h-.95v-.5h.95z" fill="#3a414a"/><path stroke="#3a414a" stroke-width=".05" fill="#3a414a"/><use xlink:href="#i" transform="matrix(1,0,0,1,692.6665974177454,591.8333333333335) translate(0 14.222222222222223)"/><path d="M416.48 532.42h-.96v-46.8h.96zm0-68.15h-.96V441.5h.96z" stroke="#3a414a" stroke-width=".05" fill="#3a414a"/><path d="M416.48 441.5h-.96v-.5h.96z" fill="#3a414a"/><path stroke="#3a414a" stroke-width=".05" fill="#3a414a"/><path d="M416.48 532.92h-.96v-.5h.96z" fill="#3a414a"/><path stroke="#3a414a" stroke-width=".05" fill="#3a414a"/><use xlink:href="#h" transform="matrix(1,0,0,1,397.777777681985,464.27274149314053) translate(0 14.222222222222223)"/><path d="M1178.5 560.96h7.9v5.87h-7.9v-5.87zM1208.6 495h31.4v76.67h-31.4V495z" fill="#29aae1"/><path d="M1140.5 507.92h83.1v53.12h-83.1v-53.12z" fill="#29aae1"/><path d="M1144.3 511.15h75.8v47.5h-75.8v-47.5z" fill="#fff" fill-opacity=".98"/><path d="M1143.8 567.25h75.7l-3.7 12.66H1140l3.8-12.65z" fill="#29aae1"/><path d="M1143.3 566.83h77.5l6.5 13.17h-77.5l-6.5-13.17z" fill="#29aae1"/><path d="M1169.6 576.6h27.6v2.63h-27.6v-2.63zM1154.4 568.87h2.1v1.7h-2.1v-1.7zM1158 568.95h2.1v1.7h-2.1v-1.7zM1162.7 572h2v1.7h-2V572zM1161.9 568.78h2.1v1.7h-2.1v-1.7zM1165.4 568.87h2.1v1.7h-2.1v-1.7zM1168.9 568.78h2v1.7h-2v-1.7zM1190.2 569.03h2.1v1.7h-2.1v-1.7zM1193.4 569.03h2v1.7h-2v-1.7zM1196.3 569.03h2.1v1.7h-2.1v-1.7zM1199.8 569.03h2.1v1.7h-2.1v-1.7zM1203.1 569.03h2v1.7h-2v-1.7zM1199.2 571.84h2.1v1.7h-2.1v-1.7zM1206.8 569.03h2.1v1.7h-2.1v-1.7zM1166.5 571.92h2.1v1.7h-2.1v-1.7zM1170.5 571.92h2v1.7h-2v-1.7zM1196 571.75h1.8v1.7h-1.8v-1.7zM1192.5 571.75h2v1.7h-2v-1.7zM1172.7 568.87h2v1.7h-2v-1.7zM1176.5 568.95h2.1v1.7h-2.1v-1.7zM1180.1 568.87h2.1v1.7h-2.1v-1.7zM1184.1 568.87h2v1.7h-2v-1.7zM1187.3 568.95h2.1v1.7h-2.1v-1.7zM1174 571.84h2v1.7h-2v-1.7zM1177.8 571.84h2.1v1.7h-2.1v-1.7zM1181.5 571.92h2v1.7h-2v-1.7zM1185 571.92h2.1v1.7h-2.1v-1.7zM1188.7 571.75h2v1.7h-2v-1.7z" fill="#fff"/><path d="M1140.1 579.9l87.2-.24-6.2-12.83-77.2.08-3.8 13z" fill="none"/><path d="M1230.8 499h5.6c.6 0 .6 0 .6.6 0 .58 0 .58-.6.58h-5.6c-.6 0-.6 0-.6-.6 0-.58 0-.58.6-.58zM1230.8 501.8h5.7c.5 0 .5 0 .5.5 0 .52 0 .52-.5.52h-5.7c-.6 0-.6 0-.6-.5 0-.52 0-.52.6-.52zM1208.7 507.07h15.1v.68h-15.1v-.68zM1223.8 507.07h.7v54.15h-.7v-54.15z" fill="#fff"/><path d="M1208.6 561.13h15.8v.76h-15.8v-.77zM1208.7 565.47h12.1c.6 0 .6 0 .6.6 0 .67 0 .67-.6.67h-12.1c-.6 0-.6 0-.6-.68 0-.6 0-.6.6-.6z" fill="#fff"/><path d="M1221.3 565.63l3.4 5.87-1 .6-3.3-5.96.9-.5zM1178.1 560.96h8.5v.85h-8.5v-.84zM1178.4 565.9h8.1v.93h-8.1v-.94z" fill="#fff"/><use xlink:href="#j" transform="matrix(1,0,0,1,1110,580) translate(14.444444444444429 18.555555555555557)"/><use xlink:href="#k" transform="matrix(1,0,0,1,1110,580) translate(55.82716049382715 18.555555555555557)"/><path d="M1140 537.5H996a6 6 0 0 1-6-6V426a6 6 0 0 0-6-6H881.5" stroke="#3a414a" fill="none"/><path d="M1140.5 537.98h-.5V537h.5zM881.5 420.48h-.5v-.96h.5z" stroke="#3a414a" stroke-width=".05" fill="#3a414a"/><path d="M1000 506a6 6 0 0 1 6-6h128a6 6 0 0 1 6 6v20.5a6 6 0 0 1-6 6h-128a6 6 0 0 1-6-6z" fill="none"/><use xlink:href="#l" transform="matrix(1,0,0,1,1000,500) translate(10 20.1)"/><path d="M598.5 625.96h7.9v5.87h-7.9v-5.87zM628.6 560H660v76.67h-31.4V560z" fill="#29aae1"/><path d="M560.5 572.92h83.1v53.13h-83.1V572.9z" fill="#29aae1"/><path d="M564.3 576.15h75.8v47.5h-75.8v-47.5z" fill="#fff" fill-opacity=".98"/><path d="M563.8 632.25h75.7l-3.7 12.66H560l3.8-12.65z" fill="#29aae1"/><path d="M563.3 631.83h77.5l6.5 13.17h-77.5l-6.5-13.17z" fill="#29aae1"/><path d="M589.6 641.6h27.6v2.63h-27.6v-2.63zM574.4 633.87h2.1v1.7h-2.1v-1.7zM578 633.95h2.1v1.7H578v-1.7zM582.7 637h2v1.7h-2V637zM581.9 633.78h2.1v1.7h-2.1v-1.7zM585.4 633.87h2.1v1.7h-2.1v-1.7zM588.9 633.78h2v1.7h-2v-1.7zM610.2 634.03h2.1v1.7h-2.1v-1.7zM613.4 634.03h2v1.7h-2v-1.7zM616.3 634.03h2.1v1.7h-2.1v-1.7zM619.8 634.03h2.1v1.7h-2.1v-1.7zM623.1 634.03h2v1.7h-2v-1.7zM619.2 636.84h2.1v1.7h-2.1v-1.7zM626.8 634.03h2.1v1.7h-2.1v-1.7zM586.5 636.92h2.1v1.7h-2.1v-1.7zM590.5 636.92h2v1.7h-2v-1.7zM616 636.75h1.8v1.7H616v-1.7zM612.5 636.75h2v1.7h-2v-1.7zM592.7 633.87h2v1.7h-2v-1.7zM596.5 633.95h2.1v1.7h-2.1v-1.7zM600.1 633.87h2.1v1.7h-2.1v-1.7zM604.1 633.87h2v1.7h-2v-1.7zM607.3 633.95h2.1v1.7h-2.1v-1.7zM594 636.84h2v1.7h-2v-1.7zM597.8 636.84h2.1v1.7h-2.1v-1.7zM601.5 636.92h2v1.7h-2v-1.7zM605 636.92h2.1v1.7H605v-1.7zM608.7 636.75h2v1.7h-2v-1.7z" fill="#fff"/><path d="M560.1 644.9l87.2-.24-6.2-12.83-77.2.08-3.8 13z" fill="none"/><path d="M650.8 564h5.6c.6 0 .6 0 .6.6 0 .58 0 .58-.6.58h-5.6c-.6 0-.6 0-.6-.6s0-.6.6-.6zM650.8 566.8h5.7c.5 0 .5 0 .5.5 0 .52 0 .52-.5.52h-5.7c-.6 0-.6 0-.6-.5 0-.52 0-.52.6-.52zM628.7 572.07h15.1v.68h-15.1v-.68z" fill="#fff"/><path d="M643.8 572.07h.7v54.14h-.7V572.1z" fill="#fff"/><path d="M628.6 626.13h15.8v.76h-15.8v-.77zM628.7 630.47h12.1c.6 0 .6 0 .6.6 0 .67 0 .67-.6.67h-12.1c-.6 0-.6 0-.6-.68 0-.6 0-.6.6-.6z" fill="#fff"/><path d="M641.3 630.63l3.4 5.87-1 .6-3.3-5.96.9-.5zM598.1 625.96h8.5v.85h-8.5v-.84zM598.4 630.9h8.1v.93h-8.1v-.94z" fill="#fff"/><use xlink:href="#m" transform="matrix(1,0,0,1,530,645) translate(39.03703703703704 18.555555555555557)"/><path d="M601.9 572.42h-.95v-54.8h.95zm0-76.13h-.95v-54.8h.95z" stroke="#3a414a" stroke-width=".05" fill="#3a414a"/><path d="M601.9 441.5h-.95v-.5h.95z" fill="#3a414a"/><path stroke="#3a414a" stroke-width=".05" fill="#3a414a"/><path d="M601.9 572.92h-.95v-.5h.95z" fill="#3a414a"/><path stroke="#3a414a" stroke-width=".05" fill="#3a414a"/><use xlink:href="#h" transform="matrix(1,0,0,1,583.2055295703093,496.29329663394367) translate(0 14.222222222222223)"/><path d="M240 686a6 6 0 0 1 6-6h228a6 6 0 0 1 6 6v28a6 6 0 0 1-6 6H246a6 6 0 0 1-6-6z" fill="none"/><use xlink:href="#n" transform="matrix(1,0,0,1,240,680) translate(85.97530864197532 23.555555555555557)"/><defs><path d="M108 0H70L1-190h34L89-25l56-165h34" id="o"/><path d="M210-169c-67 3-38 105-44 169h-31v-121c0-29-5-50-35-48C34-165 62-65 56 0H25l-1-190h30c1 10-1 24 2 32 10-44 99-50 107 0 11-21 27-35 58-36 85-2 47 119 55 194h-31v-121c0-29-5-49-35-48" id="p"/><path d="M115-194c53 0 69 39 70 98 0 66-23 100-70 100C84 3 66-7 56-30L54 0H23l1-261h32v101c10-23 28-34 59-34zm-8 174c40 0 45-34 45-75 0-40-5-75-45-74-42 0-51 32-51 76 0 43 10 73 51 73" id="q"/><path d="M114-163C36-179 61-72 57 0H25l-1-190h30c1 12-1 29 2 39 6-27 23-49 58-41v29" id="r"/><path d="M27 0v-27h64v-190l-56 39v-29l58-41h29v221h61V0H27" id="s"/><g id="a"><use transform="matrix(0.05,0,0,0.05,0,0)" xlink:href="#o"/><use transform="matrix(0.05,0,0,0.05,9,0)" xlink:href="#p"/><use transform="matrix(0.05,0,0,0.05,23.950000000000003,0)" xlink:href="#q"/><use transform="matrix(0.05,0,0,0.05,33.95,0)" xlink:href="#r"/><use transform="matrix(0.05,0,0,0.05,39.900000000000006,0)" xlink:href="#s"/></g><path d="M101-251c68 0 85 55 85 127S166 4 100 4C33 4 14-52 14-124c0-73 17-127 87-127zm-1 229c47 0 54-49 54-102s-4-102-53-102c-51 0-55 48-55 102 0 53 5 102 54 102" id="t"/><g id="b"><use transform="matrix(0.05,0,0,0.05,0,0)" xlink:href="#o"/><use transform="matrix(0.05,0,0,0.05,9,0)" xlink:href="#p"/><use transform="matrix(0.05,0,0,0.05,23.950000000000003,0)" xlink:href="#q"/><use transform="matrix(0.05,0,0,0.05,33.95,0)" xlink:href="#r"/><use transform="matrix(0.05,0,0,0.05,39.900000000000006,0)" xlink:href="#t"/></g><path d="M33 0v-38h34V0H33" id="u"/><path d="M0 4l72-265h28L28 4H0" id="v"/><path d="M101-251c82-7 93 87 43 132L82-64C71-53 59-42 53-27h129V0H18c2-99 128-94 128-182 0-28-16-43-45-43s-46 15-49 41l-32-3c6-41 34-60 81-64" id="w"/><path d="M155-56V0h-30v-56H8v-25l114-167h33v167h35v25h-35zm-30-156c-27 46-58 90-88 131h88v-131" id="x"/><g id="c"><use transform="matrix(0.05,0,0,0.05,0,0)" xlink:href="#s"/><use transform="matrix(0.05,0,0,0.05,10,0)" xlink:href="#t"/><use transform="matrix(0.05,0,0,0.05,20,0)" xlink:href="#u"/><use transform="matrix(0.05,0,0,0.05,25,0)" xlink:href="#t"/><use transform="matrix(0.05,0,0,0.05,35,0)" xlink:href="#u"/><use transform="matrix(0.05,0,0,0.05,40,0)" xlink:href="#s"/><use transform="matrix(0.05,0,0,0.05,50,0)" xlink:href="#u"/><use transform="matrix(0.05,0,0,0.05,55,0)" xlink:href="#s"/><use transform="matrix(0.05,0,0,0.05,65,0)" xlink:href="#v"/><use transform="matrix(0.05,0,0,0.05,70,0)" xlink:href="#w"/><use transform="matrix(0.05,0,0,0.05,80,0)" xlink:href="#x"/></g><path d="M99-251c64 0 84 50 84 122C183-37 130 33 47-8c-14-7-20-23-25-40l30-5c6 39 69 39 84 7 9-19 16-44 16-74-10 22-31 35-62 35-49 0-73-33-73-83 0-54 28-83 82-83zm-1 141c31-1 51-18 51-49 0-36-14-67-51-67-34 0-49 23-49 58 0 34 15 58 49 58" id="y"/><path d="M110-160c48 1 74 30 74 79 0 53-28 85-80 85-65 0-83-55-86-122-5-90 50-162 133-122 14 7 22 21 27 39l-31 6c-5-40-67-38-82-6-9 19-15 44-15 74 11-20 30-34 60-33zm-7 138c34 0 49-23 49-58s-16-56-50-56c-29 0-50 16-49 49 1 36 15 65 50 65" id="z"/><path d="M134-131c28 9 52 24 51 62-1 50-34 73-85 73S17-19 16-69c0-36 21-54 49-61-75-25-45-126 34-121 46 3 78 18 79 63 0 33-17 51-44 57zm-34-11c31 1 46-15 46-44 0-28-17-43-47-42-29 0-46 13-45 42 1 28 16 44 46 44zm1 122c35 0 51-18 51-52 0-30-18-46-53-46-33 0-51 17-51 47 0 34 19 51 53 51" id="A"/><path d="M126-127c33 6 58 20 58 59 0 88-139 92-164 29-3-8-5-16-6-25l32-3c6 27 21 44 54 44 32 0 52-15 52-46 0-38-36-46-79-43v-28c39 1 72-4 72-42 0-27-17-43-46-43-28 0-47 15-49 41l-32-3c6-42 35-63 81-64 48-1 79 21 79 65 0 36-21 52-52 59" id="B"/><g id="d"><use transform="matrix(0.05,0,0,0.05,0,0)" xlink:href="#s"/><use transform="matrix(0.05,0,0,0.05,10,0)" xlink:href="#y"/><use transform="matrix(0.05,0,0,0.05,20,0)" xlink:href="#w"/><use transform="matrix(0.05,0,0,0.05,30,0)" xlink:href="#u"/><use transform="matrix(0.05,0,0,0.05,35,0)" xlink:href="#s"/><use transform="matrix(0.05,0,0,0.05,45,0)" xlink:href="#z"/><use transform="matrix(0.05,0,0,0.05,55,0)" xlink:href="#A"/><use transform="matrix(0.05,0,0,0.05,65,0)" xlink:href="#u"/><use transform="matrix(0.05,0,0,0.05,70,0)" xlink:href="#s"/><use transform="matrix(0.05,0,0,0.05,80,0)" xlink:href="#u"/><use transform="matrix(0.05,0,0,0.05,85,0)" xlink:href="#s"/><use transform="matrix(0.05,0,0,0.05,95,0)" xlink:href="#B"/><use transform="matrix(0.05,0,0,0.05,105,0)" xlink:href="#s"/><use transform="matrix(0.05,0,0,0.05,115,0)" xlink:href="#v"/><use transform="matrix(0.05,0,0,0.05,120,0)" xlink:href="#w"/><use transform="matrix(0.05,0,0,0.05,130,0)" xlink:href="#x"/></g><path d="M137 0h-34L2-248h35l83 218 83-218h36" id="C"/><path d="M240 0l2-218c-23 76-54 145-80 218h-23L58-218 59 0H30v-248h44l77 211c21-75 51-140 76-211h43V0h-30" id="D"/><g id="e"><use transform="matrix(0.05,0,0,0.05,0,0)" xlink:href="#C"/><use transform="matrix(0.05,0,0,0.05,12,0)" xlink:href="#D"/></g><path d="M143 0L79-87 56-68V0H24v-261h32v163l83-92h37l-77 82L181 0h-38" id="E"/><path d="M135-143c-3-34-86-38-87 0 15 53 115 12 119 90S17 21 10-45l28-5c4 36 97 45 98 0-10-56-113-15-118-90-4-57 82-63 122-42 12 7 21 19 24 35" id="F"/><g id="f"><use transform="matrix(0.05,0,0,0.05,0,0)" xlink:href="#E"/><use transform="matrix(0.05,0,0,0.05,9,0)" xlink:href="#A"/><use transform="matrix(0.05,0,0,0.05,19,0)" xlink:href="#F"/></g><path d="M141-36C126-15 110 5 73 4 37 3 15-17 15-53c-1-64 63-63 125-63 3-35-9-54-41-54-24 1-41 7-42 31l-33-3c5-37 33-52 76-52 45 0 72 20 72 64v82c-1 20 7 32 28 27v20c-31 9-61-2-59-35zM48-53c0 20 12 33 32 33 41-3 63-29 60-74-43 2-92-5-92 41" id="G"/><path d="M59-47c-2 24 18 29 38 22v24C64 9 27 4 27-40v-127H5v-23h24l9-43h21v43h35v23H59v120" id="H"/><path d="M24-231v-30h32v30H24zM24 0v-190h32V0H24" id="I"/><path d="M100-194c62-1 85 37 85 99 1 63-27 99-86 99S16-35 15-95c0-66 28-99 85-99zM99-20c44 1 53-31 53-75 0-43-8-75-51-75s-53 32-53 75 10 74 51 75" id="J"/><path d="M117-194c89-4 53 116 60 194h-32v-121c0-31-8-49-39-48C34-167 62-67 57 0H25l-1-190h30c1 10-1 24 2 32 11-22 29-35 61-36" id="K"/><g id="g"><use transform="matrix(0.04938271604938272,0,0,0.04938271604938272,0,0)" xlink:href="#q"/><use transform="matrix(0.04938271604938272,0,0,0.04938271604938272,9.876543209876544,0)" xlink:href="#G"/><use transform="matrix(0.04938271604938272,0,0,0.04938271604938272,19.75308641975309,0)" xlink:href="#F"/><use transform="matrix(0.04938271604938272,0,0,0.04938271604938272,28.641975308641978,0)" xlink:href="#H"/><use transform="matrix(0.04938271604938272,0,0,0.04938271604938272,33.580246913580254,0)" xlink:href="#I"/><use transform="matrix(0.04938271604938272,0,0,0.04938271604938272,37.48148148148149,0)" xlink:href="#J"/><use transform="matrix(0.04938271604938272,0,0,0.04938271604938272,47.35802469135803,0)" xlink:href="#K"/></g><path fill="#333" d="M185-48c-13 30-37 53-82 52C43 2 14-33 14-96s30-98 90-98c62 0 83 45 84 108H66c0 31 8 55 39 56 18 0 30-7 34-22zm-45-69c5-46-57-63-70-21-2 6-4 13-4 21h74" id="L"/><path fill="#333" d="M115-3C79 11 28 4 28-45v-112H4v-33h27l15-45h31v45h36v33H77v99c-1 23 16 31 38 25v30" id="M"/><path fill="#333" d="M114-157C55-157 80-60 75 0H25v-261h50l-1 109c12-26 28-41 61-42 86-1 58 113 63 194h-50c-7-57 23-157-34-157" id="N"/><path fill="#333" d="M101-251c68 0 84 54 84 127C185-50 166 4 99 4S15-52 14-124c-1-75 17-127 87-127zm-1 216c37-5 36-46 36-89s4-89-36-89c-39 0-36 45-36 89 0 43-3 85 36 89" id="O"/><g id="h"><use transform="matrix(0.04938271604938272,0,0,0.04938271604938272,0,0)" xlink:href="#L"/><use transform="matrix(0.04938271604938272,0,0,0.04938271604938272,9.876543209876544,0)" xlink:href="#M"/><use transform="matrix(0.04938271604938272,0,0,0.04938271604938272,15.753086419753087,0)" xlink:href="#N"/><use transform="matrix(0.04938271604938272,0,0,0.04938271604938272,26.567901234567902,0)" xlink:href="#O"/></g><path fill="#333" d="M23 0v-37h61v-169l-59 37v-38l62-41h46v211h57V0H23" id="P"/><g id="i"><use transform="matrix(0.04938271604938272,0,0,0.04938271604938272,0,0)" xlink:href="#L"/><use transform="matrix(0.04938271604938272,0,0,0.04938271604938272,9.876543209876544,0)" xlink:href="#M"/><use transform="matrix(0.04938271604938272,0,0,0.04938271604938272,15.753086419753087,0)" xlink:href="#N"/><use transform="matrix(0.04938271604938272,0,0,0.04938271604938272,26.567901234567902,0)" xlink:href="#P"/></g><path d="M24 0v-261h32V0H24" id="Q"/><path d="M96-169c-40 0-48 33-48 73s9 75 48 75c24 0 41-14 43-38l32 2c-6 37-31 61-74 61-59 0-76-41-82-99-10-93 101-131 147-64 4 7 5 14 7 22l-32 3c-4-21-16-35-41-35" id="R"/><g id="j"><use transform="matrix(0.04938271604938272,0,0,0.04938271604938272,0,0)" xlink:href="#Q"/><use transform="matrix(0.04938271604938272,0,0,0.04938271604938272,3.901234567901235,0)" xlink:href="#J"/><use transform="matrix(0.04938271604938272,0,0,0.04938271604938272,13.777777777777779,0)" xlink:href="#R"/><use transform="matrix(0.04938271604938272,0,0,0.04938271604938272,22.666666666666668,0)" xlink:href="#G"/><use transform="matrix(0.04938271604938272,0,0,0.04938271604938272,32.543209876543216,0)" xlink:href="#Q"/></g><path d="M206 0h-36l-40-164L89 0H53L-1-190h32L70-26l43-164h34l41 164 42-164h31" id="S"/><g id="k"><use transform="matrix(0.04938271604938272,0,0,0.04938271604938272,0,0)" xlink:href="#S"/><use transform="matrix(0.04938271604938272,0,0,0.04938271604938272,12.790123456790125,0)" xlink:href="#J"/><use transform="matrix(0.04938271604938272,0,0,0.04938271604938272,22.66666666666667,0)" xlink:href="#r"/><use transform="matrix(0.04938271604938272,0,0,0.04938271604938272,28.54320987654322,0)" xlink:href="#E"/><use transform="matrix(0.04938271604938272,0,0,0.04938271604938272,37.4320987654321,0)" xlink:href="#F"/><use transform="matrix(0.04938271604938272,0,0,0.04938271604938272,46.32098765432099,0)" xlink:href="#H"/><use transform="matrix(0.04938271604938272,0,0,0.04938271604938272,51.25925925925927,0)" xlink:href="#G"/><use transform="matrix(0.04938271604938272,0,0,0.04938271604938272,61.13580246913581,0)" xlink:href="#H"/><use transform="matrix(0.04938271604938272,0,0,0.04938271604938272,66.07407407407408,0)" xlink:href="#I"/><use transform="matrix(0.04938271604938272,0,0,0.04938271604938272,69.97530864197532,0)" xlink:href="#J"/><use transform="matrix(0.04938271604938272,0,0,0.04938271604938272,79.85185185185186,0)" xlink:href="#K"/></g><g id="l"><use transform="matrix(0.05,0,0,0.05,0,0)" xlink:href="#s"/><use transform="matrix(0.05,0,0,0.05,10,0)" xlink:href="#y"/><use transform="matrix(0.05,0,0,0.05,20,0)" xlink:href="#w"/><use transform="matrix(0.05,0,0,0.05,30,0)" xlink:href="#u"/><use transform="matrix(0.05,0,0,0.05,35,0)" xlink:href="#s"/><use transform="matrix(0.05,0,0,0.05,45,0)" xlink:href="#z"/><use transform="matrix(0.05,0,0,0.05,55,0)" xlink:href="#A"/><use transform="matrix(0.05,0,0,0.05,65,0)" xlink:href="#u"/><use transform="matrix(0.05,0,0,0.05,70,0)" xlink:href="#s"/><use transform="matrix(0.05,0,0,0.05,80,0)" xlink:href="#u"/><use transform="matrix(0.05,0,0,0.05,85,0)" xlink:href="#s"/><use transform="matrix(0.05,0,0,0.05,95,0)" xlink:href="#v"/><use transform="matrix(0.05,0,0,0.05,100,0)" xlink:href="#w"/><use transform="matrix(0.05,0,0,0.05,110,0)" xlink:href="#x"/></g><path d="M84 4C-5 8 30-112 23-190h32v120c0 31 7 50 39 49 72-2 45-101 50-169h31l1 190h-30c-1-10 1-25-2-33-11 22-28 36-60 37" id="T"/><path d="M100-194c63 0 86 42 84 106H49c0 40 14 67 53 68 26 1 43-12 49-29l28 8c-11 28-37 45-77 45C44 4 14-33 15-96c1-61 26-98 85-98zm52 81c6-60-76-77-97-28-3 7-6 17-6 28h103" id="U"/><path d="M115-194c55 1 70 41 70 98S169 2 115 4C84 4 66-9 55-30l1 105H24l-1-265h31l2 30c10-21 28-34 59-34zm-8 174c40 0 45-34 45-75s-6-73-45-74c-42 0-51 32-51 76 0 43 10 73 51 73" id="V"/><path d="M179-190L93 31C79 59 56 82 12 73V49c39 6 53-20 64-50L1-190h34L92-34l54-156h33" id="W"/><g id="m"><use transform="matrix(0.04938271604938272,0,0,0.04938271604938272,0,0)" xlink:href="#E"/><use transform="matrix(0.04938271604938272,0,0,0.04938271604938272,8.88888888888889,0)" xlink:href="#T"/><use transform="matrix(0.04938271604938272,0,0,0.04938271604938272,18.765432098765434,0)" xlink:href="#q"/><use transform="matrix(0.04938271604938272,0,0,0.04938271604938272,28.641975308641978,0)" xlink:href="#U"/><use transform="matrix(0.04938271604938272,0,0,0.04938271604938272,38.51851851851852,0)" xlink:href="#F"/><use transform="matrix(0.04938271604938272,0,0,0.04938271604938272,47.407407407407405,0)" xlink:href="#V"/><use transform="matrix(0.04938271604938272,0,0,0.04938271604938272,57.28395061728394,0)" xlink:href="#r"/><use transform="matrix(0.04938271604938272,0,0,0.04938271604938272,63.1604938271605,0)" xlink:href="#G"/><use transform="matrix(0.04938271604938272,0,0,0.04938271604938272,73.03703703703704,0)" xlink:href="#W"/></g><path d="M141 0L90-78 38 0H4l68-98-65-92h35l48 74 47-74h35l-64 92 68 98h-35" id="X"/><g id="n"><use transform="matrix(0.04938271604938272,0,0,0.04938271604938272,0,0)" xlink:href="#V"/><use transform="matrix(0.04938271604938272,0,0,0.04938271604938272,9.876543209876544,0)" xlink:href="#r"/><use transform="matrix(0.04938271604938272,0,0,0.04938271604938272,15.753086419753087,0)" xlink:href="#J"/><use transform="matrix(0.04938271604938272,0,0,0.04938271604938272,25.629629629629633,0)" xlink:href="#X"/><use transform="matrix(0.04938271604938272,0,0,0.04938271604938272,34.51851851851852,0)" xlink:href="#p"/><use transform="matrix(0.04938271604938272,0,0,0.04938271604938272,49.28395061728395,0)" xlink:href="#J"/><use transform="matrix(0.04938271604938272,0,0,0.04938271604938272,59.1604938271605,0)" xlink:href="#X"/></g></defs></g></svg>